<svg xmlns="http://www.w3.org/2000/svg" xmlns:v="https://svgstorm.com"
viewBox = "0 0 258 247"
width="258"
height="247">
<g fill="None" fill-opacity="0.0" stroke="#392A16" stroke-opacity="1.00" stroke-width="0.3"><path d="
M 0.00 178.00 
C 8.22 171.86 18.66 169.69 28.00 168.00
C 31.03 172.20 35.63 176.29 39.70 180.30 C 43.78 184.31 44.45 192.24 49.00 195.00
C 46.97 191.61 51.24 189.17 54.00 188.00
C 56.17 184.36 58.69 181.34 61.00 178.00
C 61.82 176.48 61.57 176.20 63.00 175.00
C 63.56 174.54 66.95 171.64 68.00 173.00
C 66.09 169.46 68.55 162.44 68.00 157.00
C 53.30 159.40 45.75 140.64 50.00 128.00
C 41.41 121.98 50.99 103.44 60.00 104.00
C 60.90 103.70 62.08 104.24 63.00 104.00
C 61.71 97.61 61.35 89.15 60.07 82.93 C 58.80 76.71 54.50 68.32 59.00 64.00
C 59.77 70.12 60.60 77.03 64.00 82.00
C 66.95 78.05 65.86 69.10 70.25 66.25 C 74.63 63.40 79.66 63.24 82.00 57.00
C 86.39 57.35 86.66 59.55 89.00 55.00
C 89.79 58.30 86.17 60.04 86.00 63.00
C 86.22 62.75 87.00 63.00 87.00 63.00
C 91.68 57.65 91.32 53.16 96.75 48.75 C 102.19 44.35 102.54 53.34 105.00 47.00
C 114.24 52.98 128.39 46.76 137.00 56.00
C 137.20 56.40 137.00 57.00 137.00 57.00
C 147.65 60.49 160.62 59.39 173.00 61.00
C 175.06 65.86 182.61 66.51 184.75 72.25 C 186.90 77.98 183.53 88.63 191.00 90.00
C 195.08 104.94 191.56 120.36 194.00 136.00
C 195.76 129.72 193.23 120.57 202.00 120.00
C 202.40 134.62 197.63 147.81 193.00 161.00
C 190.50 159.67 193.57 155.26 191.00 154.00
C 189.55 159.20 189.45 164.77 188.00 170.00
C 186.21 174.67 179.56 184.90 177.00 182.00
C 178.69 184.99 173.80 193.31 178.00 192.00
C 179.19 191.00 179.78 188.55 182.00 189.00
C 170.89 201.63 179.69 216.78 179.00 232.00
C 170.19 231.24 160.46 224.39 154.00 223.00
C 157.90 221.91 163.49 230.11 168.23 230.77 C 172.97 231.43 180.55 234.57 185.08 236.92 C 189.60 239.28 195.02 242.27 198.00 247.00
L 258.00 247.00
L 258.00 85.00
C 246.00 89.84 233.78 83.40 227.00 74.00
C 221.08 54.99 245.01 38.34 258.00 53.00
L 258.00 0.00
L 0.00 0.00
L 0.00 178.00
M 182.00 33.00 
C 185.03 33.26 188.37 32.26 191.00 34.00
C 190.69 37.82 190.40 40.19 186.00 41.00
C 193.04 38.49 191.54 46.56 196.00 48.00
C 195.38 50.37 193.57 51.60 192.00 53.00
C 193.67 55.51 195.57 57.97 196.00 61.00
C 186.22 60.58 197.76 65.06 197.97 70.03 C 198.19 75.00 198.70 85.47 197.00 90.00
C 195.35 87.27 196.33 83.84 195.00 81.00
C 191.35 81.60 191.59 80.31 188.00 82.00
C 187.09 76.79 186.45 70.73 183.22 66.78 C 180.00 62.82 171.17 64.65 177.00 59.00
C 169.50 63.95 163.41 55.92 156.33 57.33 C 149.25 58.74 141.54 57.15 137.08 51.92 C 132.63 46.68 119.75 52.76 121.00 44.00
C 118.71 48.69 116.55 46.64 113.00 47.00
C 112.22 41.94 116.41 37.87 120.00 35.00
C 116.85 41.41 119.82 38.67 123.00 35.00
C 122.25 32.79 120.38 33.59 122.00 30.00
C 118.70 31.54 116.72 32.04 115.00 29.00
C 115.90 32.94 110.97 32.32 109.11 33.11 C 107.24 33.89 105.03 34.34 103.00 33.00
C 101.21 35.40 100.63 37.83 103.00 40.00
C 98.91 42.57 98.32 49.13 92.00 47.00
C 97.69 50.07 90.69 50.33 91.00 54.00
C 84.98 57.90 83.76 47.19 79.00 52.00
C 79.63 48.62 82.47 47.82 80.07 43.93 C 77.68 40.03 84.56 39.04 82.00 36.00
C 84.03 34.48 86.96 34.71 89.00 36.00
C 92.55 28.28 92.58 24.56 95.00 16.00
C 102.42 12.42 114.33 7.84 125.00 10.00 C 135.68 12.16 149.45 9.58 158.08 15.92 C 166.71 22.26 179.15 20.68 182.00 33.00 Z"/>
</g>
<g fill="None" fill-opacity="0.0" stroke="#21170F" stroke-opacity="1.00" stroke-width="0.3"><path d="
M 182.00 33.00 
C 179.15 20.68 166.71 22.26 158.08 15.92 C 149.45 9.58 135.68 12.16 125.00 10.00 C 114.33 7.84 102.42 12.42 95.00 16.00
C 92.58 24.56 92.55 28.28 89.00 36.00
C 86.96 34.71 84.03 34.48 82.00 36.00
C 84.56 39.04 77.68 40.03 80.07 43.93 C 82.47 47.82 79.63 48.62 79.00 52.00
C 83.76 47.19 84.98 57.90 91.00 54.00
C 90.69 50.33 97.69 50.07 92.00 47.00
C 98.32 49.13 98.91 42.57 103.00 40.00
C 100.63 37.83 101.21 35.40 103.00 33.00
C 105.03 34.34 107.24 33.89 109.11 33.11 C 110.97 32.32 115.90 32.94 115.00 29.00
C 116.72 32.04 118.70 31.54 122.00 30.00
C 120.38 33.59 122.25 32.79 123.00 35.00
C 119.82 38.67 116.85 41.41 120.00 35.00
C 116.41 37.87 112.22 41.94 113.00 47.00
C 116.55 46.64 118.71 48.69 121.00 44.00
C 119.75 52.76 132.63 46.68 137.08 51.92 C 141.54 57.15 149.25 58.74 156.33 57.33 C 163.41 55.92 169.50 63.95 177.00 59.00
C 171.17 64.65 180.00 62.82 183.22 66.78 C 186.45 70.73 187.09 76.79 188.00 82.00
C 191.59 80.31 191.35 81.60 195.00 81.00
C 196.33 83.84 195.35 87.27 197.00 90.00
C 198.70 85.47 198.19 75.00 197.97 70.03 C 197.76 65.06 186.22 60.58 196.00 61.00
C 195.57 57.97 193.67 55.51 192.00 53.00
C 193.57 51.60 195.38 50.37 196.00 48.00
C 191.54 46.56 193.04 38.49 186.00 41.00
C 190.40 40.19 190.69 37.82 191.00 34.00
C 188.37 32.26 185.03 33.26 182.00 33.00 Z"/>
</g>
<g fill="None" fill-opacity="0.0" stroke="#533925" stroke-opacity="1.00" stroke-width="0.3"><path d="
M 87.00 63.00 
C 94.06 64.06 98.96 55.57 98.00 50.00
C 111.26 53.39 124.46 51.52 137.00 56.00
C 128.39 46.76 114.24 52.98 105.00 47.00
C 102.54 53.34 102.19 44.35 96.75 48.75 C 91.32 53.16 91.68 57.65 87.00 63.00 Z"/>
</g>
<g fill="None" fill-opacity="0.0" stroke="#4A381B" stroke-opacity="1.00" stroke-width="0.3"><path d="
M 258.00 85.00 
L 258.00 53.00
C 245.01 38.34 221.08 54.99 227.00 74.00
C 233.78 83.40 246.00 89.84 258.00 85.00 Z"/>
</g>
<g fill="None" fill-opacity="0.0" stroke="#7A5337" stroke-opacity="1.00" stroke-width="0.3"><path d="
M 87.00 63.00 
C 87.00 63.00 86.22 62.75 86.00 63.00
C 83.53 65.83 82.90 71.79 78.92 72.92 C 74.93 74.05 70.81 80.57 70.00 74.00
C 65.97 84.91 62.92 93.90 65.00 105.00
C 63.24 103.11 61.34 108.15 60.00 104.00
C 50.99 103.44 41.41 121.98 50.00 128.00
C 50.34 128.24 51.00 128.00 51.00 128.00
C 52.67 120.97 45.83 110.95 55.00 105.00
C 63.62 104.74 65.36 115.66 67.00 122.00
C 67.18 120.21 66.02 116.64 69.00 117.00
C 68.65 120.19 68.10 124.27 70.00 127.00
C 70.89 119.46 73.41 117.09 74.00 111.00
C 74.40 106.84 71.94 103.97 72.35 100.30 C 72.77 96.64 80.36 95.01 75.00 91.00
C 80.11 89.00 82.77 85.25 89.00 85.00
C 86.83 82.64 81.84 86.77 83.93 81.92 C 86.02 77.08 86.85 79.93 85.00 83.00
C 91.31 82.48 88.85 76.06 91.00 72.00
C 93.60 62.25 98.45 56.40 108.22 56.22 C 118.00 56.04 129.36 54.78 136.90 62.10 C 144.44 69.42 156.81 60.74 165.25 68.75 C 173.68 76.77 168.15 82.56 166.00 93.00
C 169.10 95.77 170.60 99.56 173.00 102.00
C 170.56 104.41 166.01 101.45 164.00 104.00
C 167.18 103.75 171.78 106.13 174.67 104.67 C 177.56 103.21 177.06 97.87 181.00 100.00
C 177.81 94.09 181.63 87.43 180.22 78.78 C 178.81 70.13 171.38 67.48 163.92 64.08 C 156.46 60.68 147.47 60.10 140.00 63.00
C 141.39 59.23 135.65 60.87 137.00 57.00
C 137.00 57.00 137.20 56.40 137.00 56.00
C 124.46 51.52 111.26 53.39 98.00 50.00
C 98.96 55.57 94.06 64.06 87.00 63.00 Z"/>
</g>
<g fill="None" fill-opacity="0.0" stroke="#5B452E" stroke-opacity="1.00" stroke-width="0.3"><path d="
M 60.00 104.00 
C 61.34 108.15 63.24 103.11 65.00 105.00
C 62.92 93.90 65.97 84.91 70.00 74.00
C 70.81 80.57 74.93 74.05 78.92 72.92 C 82.90 71.79 83.53 65.83 86.00 63.00
C 86.17 60.04 89.79 58.30 89.00 55.00
C 86.66 59.55 86.39 57.35 82.00 57.00
C 79.66 63.24 74.63 63.40 70.25 66.25 C 65.86 69.10 66.95 78.05 64.00 82.00
C 60.60 77.03 59.77 70.12 59.00 64.00
C 54.50 68.32 58.80 76.71 60.07 82.93 C 61.35 89.15 61.71 97.61 63.00 104.00
C 62.08 104.24 60.90 103.70 60.00 104.00 Z"/>
</g>
<g fill="None" fill-opacity="0.0" stroke="#8F5839" stroke-opacity="1.00" stroke-width="0.3"><path d="
M 91.00 72.00 
C 94.38 66.42 99.74 58.50 107.00 58.00 C 114.26 57.50 127.11 54.17 133.25 60.75 C 139.39 67.34 148.07 67.21 157.00 66.00
C 158.69 71.09 164.05 81.27 157.00 85.00
C 157.78 90.10 160.38 93.84 163.00 99.00
C 154.72 99.35 148.67 106.97 140.00 107.00
C 141.15 110.45 137.43 110.51 136.00 112.00
C 145.26 118.66 140.60 130.28 145.92 140.08 C 151.25 149.87 140.32 164.09 130.00 155.00
C 133.51 160.64 121.81 152.50 124.00 154.00
C 122.73 153.79 120.84 151.60 119.00 152.00
C 120.10 154.28 121.27 156.15 120.00 159.00
C 112.31 158.66 109.41 159.36 104.00 162.00
C 101.58 157.03 109.46 153.35 113.00 151.00
C 114.52 149.92 115.22 146.80 118.00 148.00
C 116.65 145.52 114.15 147.06 117.00 143.00
C 102.17 146.39 82.27 158.89 93.00 176.00
C 84.16 174.43 86.11 162.29 81.00 158.00
C 80.12 160.88 81.57 165.41 79.00 168.00
C 75.50 155.69 71.95 145.17 72.00 131.00
C 78.29 134.50 65.88 107.51 81.00 114.00
C 81.09 110.29 75.84 113.22 74.00 111.00
C 73.41 117.09 70.89 119.46 70.00 127.00
C 68.29 141.55 75.18 156.21 71.00 170.00
C 74.01 171.66 76.55 177.90 80.00 173.00
C 79.42 175.57 78.77 179.74 83.00 179.00
C 83.03 176.25 82.46 172.64 85.00 171.00
C 87.86 177.77 90.74 186.31 98.00 188.00
C 95.53 189.55 95.89 191.33 99.00 190.00
C 100.32 193.92 101.39 196.70 98.00 199.00
C 100.21 200.00 101.47 202.00 104.00 203.00
C 100.82 207.26 108.10 207.51 107.00 212.00
C 107.26 211.75 108.00 212.00 108.00 212.00
C 111.26 210.24 112.50 216.57 116.25 217.75 C 120.00 218.94 126.68 218.08 130.00 216.00
C 131.18 215.26 131.79 212.93 134.00 214.00
C 133.44 212.40 133.50 209.97 132.00 209.00
C 130.81 216.30 122.66 216.80 115.00 215.00
C 103.88 202.48 101.65 189.95 101.00 173.00
C 104.79 174.09 106.73 178.13 110.00 180.00
C 112.35 181.56 115.36 183.21 115.00 180.00
C 114.81 178.31 111.80 177.23 113.00 175.00
C 116.12 174.35 118.06 174.42 121.00 173.00
C 125.45 179.58 133.08 175.43 139.00 178.00
C 140.11 177.76 141.21 176.60 143.00 177.00
C 142.19 176.11 141.39 175.81 140.00 176.00
C 138.57 171.29 143.02 171.11 146.00 170.00
C 142.86 166.53 133.52 168.13 128.33 166.67 C 123.14 165.21 118.80 161.08 115.00 164.00
C 118.38 161.97 125.96 169.14 131.00 168.00
C 125.32 169.37 115.89 168.98 111.00 166.00
C 111.24 164.33 113.85 165.83 114.00 164.00
C 113.57 159.81 120.19 161.16 121.90 161.12 C 123.62 161.08 130.20 161.03 133.00 162.00
C 136.42 157.22 145.14 159.07 150.00 155.00
C 149.07 143.73 146.87 133.53 144.22 121.78 C 141.58 110.02 154.00 106.25 164.00 104.00
C 166.01 101.45 170.56 104.41 173.00 102.00
C 170.60 99.56 169.10 95.77 166.00 93.00
C 168.15 82.56 173.68 76.77 165.25 68.75 C 156.81 60.74 144.44 69.42 136.90 62.10 C 129.36 54.78 118.00 56.04 108.22 56.22 C 98.45 56.40 93.60 62.25 91.00 72.00
M 113.00 173.00 
C 113.41 174.67 111.18 176.15 112.00 178.00
C 108.06 178.63 105.92 174.73 103.00 173.00
C 98.73 170.43 98.89 172.67 96.00 176.00
C 86.19 166.93 98.19 151.85 109.00 150.00
C 106.79 154.85 99.87 157.06 97.00 162.00
C 103.00 160.68 106.34 164.48 103.00 169.00
C 108.64 168.82 114.55 170.32 119.00 173.00
C 117.06 173.74 115.02 173.68 113.00 173.00
M 128.00 173.00 
C 126.33 175.35 123.18 173.18 121.00 173.00
C 122.66 170.60 125.54 174.08 128.00 173.00 Z"/>
</g>
<g fill="None" fill-opacity="0.0" stroke="#AD704E" stroke-opacity="1.00" stroke-width="0.3"><path d="
M 91.00 72.00 
C 88.85 76.06 91.31 82.48 85.00 83.00
C 86.85 79.93 86.02 77.08 83.93 81.92 C 81.84 86.77 86.83 82.64 89.00 85.00
C 82.77 85.25 80.11 89.00 75.00 91.00
C 80.36 95.01 72.77 96.64 72.35 100.30 C 71.94 103.97 74.40 106.84 74.00 111.00
C 75.84 113.22 81.09 110.29 81.00 114.00
C 65.88 107.51 78.29 134.50 72.00 131.00
C 71.95 145.17 75.50 155.69 79.00 168.00
C 81.57 165.41 80.12 160.88 81.00 158.00
C 86.11 162.29 84.16 174.43 93.00 176.00
C 82.27 158.89 102.17 146.39 117.00 143.00
C 114.15 147.06 116.65 145.52 118.00 148.00
C 115.22 146.80 114.52 149.92 113.00 151.00
C 114.87 149.97 116.62 148.88 119.00 148.00
C 118.16 145.44 117.16 142.50 120.00 141.00
C 107.33 140.75 99.05 149.49 88.00 157.00
C 87.07 152.86 83.59 149.05 80.00 150.00
C 80.04 145.85 78.49 140.78 77.00 147.00
C 74.41 142.69 79.25 139.04 77.00 135.00
C 79.99 135.88 81.22 132.39 81.00 130.00
C 83.74 135.40 91.48 125.11 95.02 127.02 C 98.57 128.94 104.61 129.90 109.00 129.00
C 103.93 129.20 108.52 128.02 110.00 127.00
C 105.75 127.64 102.27 125.36 98.00 126.00
C 100.57 123.97 104.99 125.70 108.00 124.00
C 101.49 121.74 93.06 119.49 86.00 121.00
C 88.21 117.27 87.12 113.60 91.00 112.00
C 91.26 111.89 91.65 111.07 92.00 111.00
C 92.01 107.70 87.80 109.69 88.00 112.00
C 87.66 108.88 82.31 109.90 82.08 105.92 C 81.85 101.94 86.67 100.27 88.00 97.00
C 91.05 99.78 92.05 109.08 99.00 106.00
C 98.02 103.99 95.64 103.36 94.00 102.00
C 94.83 99.72 96.54 98.90 95.00 96.00
C 97.24 96.70 106.47 95.86 102.00 100.00
C 104.84 100.59 108.98 98.78 111.00 101.00
C 120.01 100.28 122.71 102.96 130.75 106.25 C 138.79 109.54 130.27 121.00 125.00 118.00
C 122.83 119.92 123.33 122.69 122.00 125.00
C 123.91 124.51 125.78 123.39 128.00 124.00
C 127.45 118.99 132.32 118.44 133.00 123.00
C 135.48 109.93 140.15 120.59 139.93 129.07 C 139.71 137.56 147.22 146.35 142.00 155.00
C 137.28 155.42 133.28 156.46 129.00 154.00
C 129.26 154.12 129.70 154.78 130.00 155.00
C 140.32 164.09 151.25 149.87 145.92 140.08 C 140.60 130.28 145.26 118.66 136.00 112.00
C 137.43 110.51 141.15 110.45 140.00 107.00
C 148.67 106.97 154.72 99.35 163.00 99.00
C 160.38 93.84 157.78 90.10 157.00 85.00
C 164.05 81.27 158.69 71.09 157.00 66.00
C 148.07 67.21 139.39 67.34 133.25 60.75 C 127.11 54.17 114.26 57.50 107.00 58.00 C 99.74 58.50 94.38 66.42 91.00 72.00 Z"/>
</g>
<g fill="None" fill-opacity="0.0" stroke="#5F381E" stroke-opacity="1.00" stroke-width="0.3"><path d="
M 164.00 104.00 
C 154.00 106.25 141.58 110.02 144.22 121.78 C 146.87 133.53 149.07 143.73 150.00 155.00
C 145.14 159.07 136.42 157.22 133.00 162.00
C 130.20 161.03 123.62 161.08 121.90 161.12 C 120.19 161.16 113.57 159.81 114.00 164.00
C 114.47 163.89 115.00 164.00 115.00 164.00
C 118.80 161.08 123.14 165.21 128.33 166.67 C 133.52 168.13 142.86 166.53 146.00 170.00
C 143.02 171.11 138.57 171.29 140.00 176.00
C 141.39 175.81 142.19 176.11 143.00 177.00
C 145.74 180.00 143.19 178.27 145.00 178.00
C 147.24 177.67 149.63 177.56 151.00 175.00
C 152.84 176.26 153.17 178.79 153.00 181.00
C 153.57 179.96 155.27 180.46 156.00 180.00
C 156.23 179.86 156.00 179.00 156.00 179.00
C 155.98 178.00 156.01 177.00 156.00 176.00
C 153.15 179.76 154.04 175.11 153.00 173.00
C 157.48 171.38 163.53 171.40 168.00 173.00
C 164.68 178.90 158.52 185.71 153.00 183.00
C 150.84 186.06 160.94 196.60 152.00 200.00
C 154.29 204.33 154.36 205.06 158.00 202.00
C 162.49 210.36 147.78 212.03 152.00 216.00
C 145.69 216.34 141.43 216.01 136.00 219.00
C 134.71 215.80 132.53 217.20 130.00 216.00
C 126.68 218.08 120.00 218.94 116.25 217.75 C 112.50 216.57 111.26 210.24 108.00 212.00
C 109.89 216.57 115.62 219.36 120.00 221.00
C 129.96 223.24 137.97 219.53 148.23 218.79 C 158.49 218.04 160.12 204.68 165.11 198.11 C 170.09 191.54 174.58 180.20 183.00 178.00
C 183.01 174.82 185.36 171.66 188.00 170.00
C 189.45 164.77 189.55 159.20 191.00 154.00
C 193.57 155.26 190.50 159.67 193.00 161.00
C 197.63 147.81 202.40 134.62 202.00 120.00
C 193.23 120.57 195.76 129.72 194.00 136.00
C 191.56 120.36 195.08 104.94 191.00 90.00
C 183.53 88.63 186.90 77.98 184.75 72.25 C 182.61 66.51 175.06 65.86 173.00 61.00
C 160.62 59.39 147.65 60.49 137.00 57.00
C 135.65 60.87 141.39 59.23 140.00 63.00
C 147.47 60.10 156.46 60.68 163.92 64.08 C 171.38 67.48 178.81 70.13 180.22 78.78 C 181.63 87.43 177.81 94.09 181.00 100.00
C 177.06 97.87 177.56 103.21 174.67 104.67 C 171.78 106.13 167.18 103.75 164.00 104.00
M 176.00 113.00 
C 173.87 115.35 169.49 112.75 167.00 115.00
C 172.65 115.47 177.88 119.05 184.00 119.00
C 181.51 120.73 185.78 123.66 183.00 125.00
C 180.22 122.70 177.24 126.02 174.00 125.00
C 175.28 124.06 178.79 121.62 176.00 120.00
C 174.84 124.67 164.82 124.59 164.00 119.00
C 160.45 119.34 159.47 122.14 163.00 123.00
C 158.11 125.09 152.64 122.09 149.00 125.00
C 146.78 111.89 166.48 111.33 176.00 113.00
M 175.00 127.00 
C 171.78 131.22 164.65 128.34 161.00 126.00
C 165.21 123.17 170.74 125.96 175.00 127.00
M 179.00 165.00 
C 169.73 160.31 164.91 150.68 157.00 144.00
C 160.47 139.19 155.56 134.98 154.00 131.00
C 162.24 128.31 173.19 130.12 182.22 134.78 C 191.25 139.44 179.82 158.62 179.00 165.00
M 157.00 166.00 
C 151.69 166.08 143.70 168.94 141.00 163.00
C 145.44 161.45 155.31 158.41 157.00 166.00
M 175.00 166.00 
C 176.59 171.05 175.72 175.52 171.00 178.00
C 173.10 170.74 165.48 169.67 167.00 164.00
C 169.51 164.96 171.74 167.69 175.00 166.00 Z"/>
</g>
<g fill="None" fill-opacity="0.0" stroke="#935E3E" stroke-opacity="1.00" stroke-width="0.3"><path d="
M 92.00 111.00 
C 97.50 109.98 101.97 108.20 107.00 107.00
C 106.05 103.90 107.27 102.14 104.00 101.00
C 106.33 101.00 108.67 101.00 111.00 101.00
C 108.98 98.78 104.84 100.59 102.00 100.00
C 106.47 95.86 97.24 96.70 95.00 96.00
C 96.54 98.90 94.83 99.72 94.00 102.00
C 95.64 103.36 98.02 103.99 99.00 106.00
C 92.05 109.08 91.05 99.78 88.00 97.00
C 86.67 100.27 81.85 101.94 82.08 105.92 C 82.31 109.90 87.66 108.88 88.00 112.00
C 87.80 109.69 92.01 107.70 92.00 111.00 Z"/>
</g>
<g fill="None" fill-opacity="0.0" stroke="#7A482C" stroke-opacity="1.00" stroke-width="0.3"><path d="
M 111.00 101.00 
C 108.67 101.00 106.33 101.00 104.00 101.00
C 107.27 102.14 106.05 103.90 107.00 107.00
C 101.97 108.20 97.50 109.98 92.00 111.00
C 91.65 111.07 91.26 111.89 91.00 112.00
C 93.64 115.68 105.00 107.20 105.00 113.00
C 105.26 112.75 106.50 112.99 107.00 113.00
C 109.41 113.06 112.38 114.68 114.00 113.00
C 110.85 111.38 107.37 110.94 104.00 110.00
C 109.91 106.98 117.09 110.37 123.00 112.00
C 122.25 115.04 120.25 118.40 119.00 114.00
C 116.17 117.03 119.22 116.91 121.00 120.00
C 113.12 121.54 117.11 117.62 111.00 116.00
C 110.46 117.66 108.44 118.33 108.00 120.00
C 107.07 121.08 105.65 120.60 105.00 122.00
C 111.02 119.49 111.65 127.09 117.00 126.00
C 118.49 125.48 120.41 125.41 122.00 125.00
C 123.33 122.69 122.83 119.92 125.00 118.00
C 130.27 121.00 138.79 109.54 130.75 106.25 C 122.71 102.96 120.01 100.28 111.00 101.00 Z"/>
</g>
<g fill="None" fill-opacity="0.0" stroke="#A36642" stroke-opacity="1.00" stroke-width="0.3"><path d="
M 51.00 128.00 
C 51.67 135.36 50.73 140.74 54.00 147.00
C 53.59 144.13 54.13 142.71 57.00 144.00
C 48.77 133.51 55.58 123.20 58.00 112.00
C 59.71 114.72 61.09 118.43 61.00 122.00
C 51.28 126.31 55.32 140.26 63.00 142.00
C 63.91 137.72 60.15 135.12 59.00 132.00
C 61.94 132.13 62.28 129.49 65.00 128.00
C 66.96 130.97 66.00 135.41 68.00 138.00
C 67.80 132.81 67.75 127.24 67.00 122.00
C 65.36 115.66 63.62 104.74 55.00 105.00
C 45.83 110.95 52.67 120.97 51.00 128.00
M 56.00 109.00 
C 58.13 109.83 56.99 116.05 54.25 115.59 C 51.51 115.13 53.78 108.13 56.00 109.00 Z"/>
</g>
<g fill="None" fill-opacity="0.0" stroke="#85451F" stroke-opacity="1.00" stroke-width="0.3"><path d="
M 56.00 109.00 
C 53.78 108.13 51.51 115.13 54.25 115.59 C 56.99 116.05 58.13 109.83 56.00 109.00 Z"/>
</g>
<g fill="None" fill-opacity="0.0" stroke="#562E16" stroke-opacity="1.00" stroke-width="0.3"><path d="
M 107.00 113.00 
C 107.82 113.16 110.35 114.20 111.00 115.00
C 109.20 120.15 101.26 120.40 100.00 115.00
C 101.56 112.44 105.30 116.53 105.00 113.00
C 101.69 115.78 92.08 113.13 90.00 119.00
C 96.43 119.06 101.32 121.09 108.00 120.00
C 108.44 118.33 110.46 117.66 111.00 116.00
C 117.11 117.62 113.12 121.54 121.00 120.00
C 119.22 116.91 116.17 117.03 119.00 114.00
C 120.25 118.40 122.25 115.04 123.00 112.00
C 117.09 110.37 109.91 106.98 104.00 110.00
C 107.37 110.94 110.85 111.38 114.00 113.00
C 112.38 114.68 109.41 113.06 107.00 113.00
M 100.00 119.00 
C 95.76 117.38 100.89 114.18 100.00 119.00 Z"/>
</g>
<g fill="None" fill-opacity="0.0" stroke="#905C3F" stroke-opacity="1.00" stroke-width="0.3"><path d="
M 91.00 112.00 
C 87.12 113.60 88.21 117.27 86.00 121.00
C 93.06 119.49 101.49 121.74 108.00 124.00
C 104.99 125.70 100.57 123.97 98.00 126.00
C 102.27 125.36 105.75 127.64 110.00 127.00
C 108.52 128.02 103.93 129.20 109.00 129.00
C 112.35 128.87 114.36 126.93 117.00 126.00
C 111.65 127.09 111.02 119.49 105.00 122.00
C 105.65 120.60 107.07 121.08 108.00 120.00
C 101.32 121.09 96.43 119.06 90.00 119.00
C 92.08 113.13 101.69 115.78 105.00 113.00
C 105.00 107.20 93.64 115.68 91.00 112.00 Z"/>
</g>
<g fill="None" fill-opacity="0.0" stroke="#BA7D54" stroke-opacity="1.00" stroke-width="0.3"><path d="
M 54.00 147.00 
C 54.69 148.32 55.20 149.76 56.00 151.00
C 58.33 153.52 63.31 155.63 67.00 155.00
C 66.73 153.72 67.77 152.28 69.00 152.00
C 69.76 147.98 68.16 142.31 68.00 138.00
C 66.00 135.41 66.96 130.97 65.00 128.00
C 62.28 129.49 61.94 132.13 59.00 132.00
C 60.15 135.12 63.91 137.72 63.00 142.00
C 55.32 140.26 51.28 126.31 61.00 122.00
C 61.09 118.43 59.71 114.72 58.00 112.00
C 55.58 123.20 48.77 133.51 57.00 144.00
C 54.13 142.71 53.59 144.13 54.00 147.00 Z"/>
</g>
<g fill="None" fill-opacity="0.0" stroke="#3A1E0D" stroke-opacity="1.00" stroke-width="0.3"><path d="
M 176.00 113.00 
C 166.48 111.33 146.78 111.89 149.00 125.00
C 152.64 122.09 158.11 125.09 163.00 123.00
C 159.47 122.14 160.45 119.34 164.00 119.00
C 164.82 124.59 174.84 124.67 176.00 120.00
C 178.79 121.62 175.28 124.06 174.00 125.00
C 177.24 126.02 180.22 122.70 183.00 125.00
C 185.78 123.66 181.51 120.73 184.00 119.00
C 177.88 119.05 172.65 115.47 167.00 115.00
C 169.49 112.75 173.87 115.35 176.00 113.00 Z"/>
</g>
<g fill="None" fill-opacity="0.0" stroke="#250E04" stroke-opacity="1.00" stroke-width="0.3"><path d="
M 107.00 113.00 
C 106.50 112.99 105.26 112.75 105.00 113.00
C 105.30 116.53 101.56 112.44 100.00 115.00
C 101.26 120.40 109.20 120.15 111.00 115.00
C 110.35 114.20 107.82 113.16 107.00 113.00 Z"/>
</g>
<g fill="None" fill-opacity="0.0" stroke="#7A5D4B" stroke-opacity="1.00" stroke-width="0.3"><path d="
M 100.00 119.00 
C 100.89 114.18 95.76 117.38 100.00 119.00 Z"/>
</g>
<g fill="None" fill-opacity="0.0" stroke="#C27F58" stroke-opacity="1.00" stroke-width="0.3"><path d="
M 122.00 125.00 
C 120.41 125.41 118.49 125.48 117.00 126.00
C 114.36 126.93 112.35 128.87 109.00 129.00
C 104.61 129.90 98.57 128.94 95.02 127.02 C 91.48 125.11 83.74 135.40 81.00 130.00
C 81.22 132.39 79.99 135.88 77.00 135.00
C 79.25 139.04 74.41 142.69 77.00 147.00
C 78.49 140.78 80.04 145.85 80.00 150.00
C 83.59 149.05 87.07 152.86 88.00 157.00
C 99.05 149.49 107.33 140.75 120.00 141.00
C 117.16 142.50 118.16 145.44 119.00 148.00
C 116.62 148.88 114.87 149.97 113.00 151.00
C 109.46 153.35 101.58 157.03 104.00 162.00
C 109.41 159.36 112.31 158.66 120.00 159.00
C 121.27 156.15 120.10 154.28 119.00 152.00
C 120.84 151.60 122.73 153.79 124.00 154.00
C 125.42 154.23 127.70 153.42 129.00 154.00
C 133.28 156.46 137.28 155.42 142.00 155.00
C 147.22 146.35 139.71 137.56 139.93 129.07 C 140.15 120.59 135.48 109.93 133.00 123.00
C 132.32 118.44 127.45 118.99 128.00 124.00
C 125.78 123.39 123.91 124.51 122.00 125.00 Z"/>
</g>
<g fill="None" fill-opacity="0.0" stroke="#55351D" stroke-opacity="1.00" stroke-width="0.3"><path d="
M 67.00 122.00 
C 67.75 127.24 67.80 132.81 68.00 138.00
C 68.16 142.31 69.76 147.98 69.00 152.00
C 68.76 153.27 67.36 154.44 68.00 156.00
C 63.35 156.66 58.19 155.51 56.00 151.00
C 55.20 149.76 54.69 148.32 54.00 147.00
C 50.73 140.74 51.67 135.36 51.00 128.00
C 51.00 128.00 50.34 128.24 50.00 128.00
C 45.75 140.64 53.30 159.40 68.00 157.00
C 68.55 162.44 66.09 169.46 68.00 173.00
C 71.62 171.76 71.99 180.18 74.25 181.75 C 76.50 183.32 77.83 189.87 79.00 193.00
C 79.33 193.24 80.00 193.00 80.00 193.00
C 81.39 195.73 84.43 198.91 87.75 201.25 C 91.08 203.59 92.93 208.65 95.00 211.00
C 94.70 210.80 98.61 210.93 99.00 211.00
C 97.20 209.77 89.65 202.21 91.80 199.75 C 93.96 197.30 104.77 204.64 100.00 209.00
C 102.63 209.94 104.16 207.29 106.00 211.00
C 104.33 211.00 102.67 211.00 101.00 211.00
C 104.77 215.67 108.92 223.31 117.22 225.78 C 125.53 228.24 133.44 231.43 141.00 233.00
C 144.39 237.75 138.94 242.03 140.00 247.00
L 141.00 247.00
C 141.62 244.00 141.57 240.07 144.00 238.00
C 143.30 241.27 145.43 243.77 145.00 247.00
L 149.00 247.00
C 148.97 243.53 149.03 236.45 150.78 233.78 C 152.53 231.11 150.12 224.09 154.00 223.00
C 148.72 224.20 143.52 231.07 137.00 229.00 C 130.48 226.93 123.97 227.52 117.98 225.02 C 111.98 222.53 109.97 218.53 104.00 216.00
C 103.14 213.13 107.84 215.00 107.00 212.00
C 108.10 207.51 100.82 207.26 104.00 203.00
C 101.47 202.00 100.21 200.00 98.00 199.00
C 101.39 196.70 100.32 193.92 99.00 190.00
C 95.89 191.33 95.53 189.55 98.00 188.00
C 90.74 186.31 87.86 177.77 85.00 171.00
C 82.46 172.64 83.03 176.25 83.00 179.00
C 78.77 179.74 79.42 175.57 80.00 173.00
C 76.55 177.90 74.01 171.66 71.00 170.00
C 75.18 156.21 68.29 141.55 70.00 127.00
C 68.10 124.27 68.65 120.19 69.00 117.00
C 66.02 116.64 67.18 120.21 67.00 122.00 Z"/>
</g>
<g fill="None" fill-opacity="0.0" stroke="#80533C" stroke-opacity="1.00" stroke-width="0.3"><path d="
M 175.00 127.00 
C 170.74 125.96 165.21 123.17 161.00 126.00
C 164.65 128.34 171.78 131.22 175.00 127.00 Z"/>
</g>
<g fill="None" fill-opacity="0.0" stroke="#885232" stroke-opacity="1.00" stroke-width="0.3"><path d="
M 179.00 165.00 
C 179.82 158.62 191.25 139.44 182.22 134.78 C 173.19 130.12 162.24 128.31 154.00 131.00
C 155.56 134.98 160.47 139.19 157.00 144.00
C 164.91 150.68 169.73 160.31 179.00 165.00
M 181.00 137.00 
C 182.67 144.85 182.21 155.24 173.00 157.00
C 171.09 154.77 170.79 150.06 167.00 153.00
C 167.81 147.62 162.38 145.65 164.00 141.00
C 159.66 139.17 157.58 134.87 159.00 131.00
C 164.17 137.26 174.28 133.22 181.00 137.00 Z"/>
</g>
<g fill="None" fill-opacity="0.0" stroke="#9B5F3D" stroke-opacity="1.00" stroke-width="0.3"><path d="
M 181.00 137.00 
C 174.28 133.22 164.17 137.26 159.00 131.00
C 157.58 134.87 159.66 139.17 164.00 141.00
C 162.38 145.65 167.81 147.62 167.00 153.00
C 170.79 150.06 171.09 154.77 173.00 157.00
C 182.21 155.24 182.67 144.85 181.00 137.00 Z"/>
</g>
<g fill="None" fill-opacity="0.0" stroke="#62321A" stroke-opacity="1.00" stroke-width="0.3"><path d="
M 103.00 173.00 
C 102.61 171.99 101.70 171.24 102.00 170.00
C 105.78 170.14 110.98 169.01 113.00 173.00
C 115.02 173.68 117.06 173.74 119.00 173.00
C 114.55 170.32 108.64 168.82 103.00 169.00
C 106.34 164.48 103.00 160.68 97.00 162.00
C 99.87 157.06 106.79 154.85 109.00 150.00
C 98.19 151.85 86.19 166.93 96.00 176.00
C 98.89 172.67 98.73 170.43 103.00 173.00 Z"/>
</g>
<g fill="None" fill-opacity="0.0" stroke="#8E6846" stroke-opacity="1.00" stroke-width="0.3"><path d="
M 69.00 152.00 
C 67.77 152.28 66.73 153.72 67.00 155.00
C 63.31 155.63 58.33 153.52 56.00 151.00
C 58.19 155.51 63.35 156.66 68.00 156.00
C 67.36 154.44 68.76 153.27 69.00 152.00 Z"/>
</g>
<g fill="None" fill-opacity="0.0" stroke="#6B2F10" stroke-opacity="1.00" stroke-width="0.3"><path d="
M 130.00 155.00 
C 129.70 154.78 129.26 154.12 129.00 154.00
C 127.70 153.42 125.42 154.23 124.00 154.00
C 121.81 152.50 133.51 160.64 130.00 155.00 Z"/>
</g>
<g fill="None" fill-opacity="0.0" stroke="#2E1504" stroke-opacity="1.00" stroke-width="0.3"><path d="
M 157.00 166.00 
C 155.31 158.41 145.44 161.45 141.00 163.00
C 143.70 168.94 151.69 166.08 157.00 166.00 Z"/>
</g>
<g fill="None" fill-opacity="0.0" stroke="#B17555" stroke-opacity="1.00" stroke-width="0.3"><path d="
M 115.00 164.00 
C 115.00 164.00 114.47 163.89 114.00 164.00
C 113.85 165.83 111.24 164.33 111.00 166.00
C 115.89 168.98 125.32 169.37 131.00 168.00
C 125.96 169.14 118.38 161.97 115.00 164.00 Z"/>
</g>
<g fill="None" fill-opacity="0.0" stroke="#3F200A" stroke-opacity="1.00" stroke-width="0.3"><path d="
M 175.00 166.00 
C 171.74 167.69 169.51 164.96 167.00 164.00
C 165.48 169.67 173.10 170.74 171.00 178.00
C 175.72 175.52 176.59 171.05 175.00 166.00 Z"/>
</g>
<g fill="None" fill-opacity="0.0" stroke="#554122" stroke-opacity="1.00" stroke-width="0.3"><path d="
M 0.00 178.00 
L 0.00 190.00
C 5.42 182.37 19.48 178.70 26.68 184.32 C 33.88 189.94 44.08 192.84 41.00 201.00
C 42.33 201.00 43.67 201.00 45.00 201.00
C 46.58 198.96 50.04 194.98 52.00 192.00
C 52.62 190.62 53.17 189.38 54.00 188.00
C 51.24 189.17 46.97 191.61 49.00 195.00
C 44.45 192.24 43.78 184.31 39.70 180.30 C 35.63 176.29 31.03 172.20 28.00 168.00
C 18.66 169.69 8.22 171.86 0.00 178.00 Z"/>
</g>
<g fill="None" fill-opacity="0.0" stroke="#371209" stroke-opacity="1.00" stroke-width="0.3"><path d="
M 103.00 173.00 
C 105.92 174.73 108.06 178.63 112.00 178.00
C 111.18 176.15 113.41 174.67 113.00 173.00
C 110.98 169.01 105.78 170.14 102.00 170.00
C 101.70 171.24 102.61 171.99 103.00 173.00 Z"/>
</g>
<g fill="None" fill-opacity="0.0" stroke="#412612" stroke-opacity="1.00" stroke-width="0.3"><path d="
M 120.00 221.00 
C 126.99 223.61 137.11 225.83 144.22 223.78 C 151.34 221.73 158.55 216.94 161.26 209.26 C 163.96 201.58 173.86 197.72 173.00 189.00
C 174.89 190.26 174.05 193.80 176.00 195.00
C 176.30 193.75 177.83 193.29 178.00 192.00
C 173.80 193.31 178.69 184.99 177.00 182.00
C 179.56 184.90 186.21 174.67 188.00 170.00
C 185.36 171.66 183.01 174.82 183.00 178.00
C 174.58 180.20 170.09 191.54 165.11 198.11 C 160.12 204.68 158.49 218.04 148.23 218.79 C 137.97 219.53 129.96 223.24 120.00 221.00 Z"/>
</g>
<g fill="None" fill-opacity="0.0" stroke="#6D3018" stroke-opacity="1.00" stroke-width="0.3"><path d="
M 128.00 173.00 
C 125.54 174.08 122.66 170.60 121.00 173.00
C 123.18 173.18 126.33 175.35 128.00 173.00 Z"/>
</g>
<g fill="None" fill-opacity="0.0" stroke="#432214" stroke-opacity="1.00" stroke-width="0.3"><path d="
M 156.00 179.00 
C 157.96 174.51 158.72 171.28 165.00 174.00
C 164.45 177.60 158.93 182.04 156.00 180.00
C 155.27 180.46 153.57 179.96 153.00 181.00
C 152.96 181.50 153.00 182.00 153.00 182.00
C 153.00 182.50 153.00 183.00 153.00 183.00
C 158.52 185.71 164.68 178.90 168.00 173.00
C 163.53 171.40 157.48 171.38 153.00 173.00
C 154.04 175.11 153.15 179.76 156.00 176.00
C 156.01 177.00 155.98 178.00 156.00 179.00 Z"/>
</g>
<g fill="None" fill-opacity="0.0" stroke="#917E69" stroke-opacity="1.00" stroke-width="0.3"><path d="
M 63.00 175.00 
C 63.26 174.56 62.96 178.53 63.00 179.00
C 63.12 180.41 63.70 180.11 64.00 181.00
C 63.98 176.92 64.24 177.22 67.00 175.00
C 67.24 174.81 67.88 173.04 68.00 173.00
C 66.95 171.64 63.56 174.54 63.00 175.00 Z"/>
</g>
<g fill="None" fill-opacity="0.0" stroke="#926446" stroke-opacity="1.00" stroke-width="0.3"><path d="
M 67.00 175.00 
C 67.64 177.98 67.17 186.83 70.00 192.00
C 70.85 188.66 70.07 186.01 71.00 183.00
C 75.14 184.20 75.65 190.51 79.00 193.00
C 77.83 189.87 76.50 183.32 74.25 181.75 C 71.99 180.18 71.62 171.76 68.00 173.00
C 67.88 173.04 67.24 174.81 67.00 175.00 Z"/>
</g>
<g fill="None" fill-opacity="0.0" stroke="#C38159" stroke-opacity="1.00" stroke-width="0.3"><path d="
M 132.00 209.00 
C 131.79 208.61 131.98 207.50 132.00 207.00
C 129.64 204.10 127.17 201.54 123.00 201.00
C 123.47 197.59 127.13 197.72 129.00 196.00
C 122.96 198.33 123.03 186.53 129.00 191.00
C 129.87 184.43 121.27 183.60 118.00 187.00
C 116.30 185.78 114.66 184.22 114.00 182.00
C 112.53 185.33 111.30 181.73 110.00 180.00
C 106.73 178.13 104.79 174.09 101.00 173.00
C 101.65 189.95 103.88 202.48 115.00 215.00
C 122.66 216.80 130.81 216.30 132.00 209.00 Z"/>
</g>
<g fill="None" fill-opacity="0.0" stroke="#C69B84" stroke-opacity="1.00" stroke-width="0.3"><path d="
M 115.00 180.00 
C 119.11 179.81 121.00 183.39 125.00 180.00
C 125.15 184.56 130.41 181.56 133.00 185.00
C 134.80 185.41 138.18 185.32 140.00 185.00
C 142.89 184.20 141.81 182.85 143.00 181.00
C 143.98 178.09 141.15 177.69 139.00 178.00
C 133.08 175.43 125.45 179.58 121.00 173.00
C 118.06 174.42 116.12 174.35 113.00 175.00
C 111.80 177.23 114.81 178.31 115.00 180.00 Z"/>
</g>
<g fill="None" fill-opacity="0.0" stroke="#1E0604" stroke-opacity="1.00" stroke-width="0.3"><path d="
M 156.00 179.00 
C 156.00 179.00 156.23 179.86 156.00 180.00
C 158.93 182.04 164.45 177.60 165.00 174.00
C 158.72 171.28 157.96 174.51 156.00 179.00 Z"/>
</g>
<g fill="None" fill-opacity="0.0" stroke="#B9AD9E" stroke-opacity="1.00" stroke-width="0.3"><path d="
M 61.00 178.00 
C 59.01 181.67 56.97 185.50 55.00 189.00
C 57.00 186.11 61.79 181.43 63.00 179.00
C 62.96 178.53 63.26 174.56 63.00 175.00
C 61.57 176.20 61.82 176.48 61.00 178.00 Z"/>
</g>
<g fill="None" fill-opacity="0.0" stroke="#5F3E26" stroke-opacity="1.00" stroke-width="0.3"><path d="
M 64.00 181.00 
C 65.37 185.01 66.41 188.97 68.00 193.00
C 68.60 193.49 69.79 194.33 70.00 193.00
C 69.75 192.71 70.00 192.00 70.00 192.00
C 67.17 186.83 67.64 177.98 67.00 175.00
C 64.24 177.22 63.98 176.92 64.00 181.00 Z"/>
</g>
<g fill="None" fill-opacity="0.0" stroke="#7E4A2C" stroke-opacity="1.00" stroke-width="0.3"><path d="
M 145.00 178.00 
C 145.74 178.44 147.21 177.65 148.00 178.00
C 148.59 180.27 147.15 181.90 147.00 184.00
C 146.63 184.47 144.46 185.88 144.00 186.00
C 145.64 186.20 147.35 185.85 149.00 186.00
C 148.75 191.65 141.24 193.57 137.00 192.00
C 136.00 197.81 129.46 196.73 126.00 199.00
C 128.45 201.08 133.36 202.41 132.00 207.00
C 131.98 207.50 131.79 208.61 132.00 209.00
C 133.50 209.97 133.44 212.40 134.00 214.00
C 131.79 212.93 131.18 215.26 130.00 216.00
C 132.53 217.20 134.71 215.80 136.00 219.00
C 141.43 216.01 145.69 216.34 152.00 216.00
C 147.78 212.03 162.49 210.36 158.00 202.00
C 154.36 205.06 154.29 204.33 152.00 200.00
C 160.94 196.60 150.84 186.06 153.00 183.00
C 153.00 183.00 153.00 182.50 153.00 182.00
C 151.70 182.21 150.31 181.84 149.00 182.00
C 147.89 179.03 150.90 177.59 151.00 175.00
C 149.63 177.56 147.24 177.67 145.00 178.00
M 149.00 182.00 
C 149.58 182.05 150.25 184.18 148.87 183.92 C 147.48 183.65 148.11 181.92 149.00 182.00
M 141.00 199.00 
C 139.20 201.64 141.98 204.80 141.00 208.00
C 138.89 205.58 135.56 204.98 136.00 201.00
C 134.67 204.11 133.08 201.28 133.00 199.00
C 135.67 199.00 138.33 199.00 141.00 199.00 Z"/>
</g>
<g fill="None" fill-opacity="0.0" stroke="#886755" stroke-opacity="1.00" stroke-width="0.3"><path d="
M 153.00 182.00 
C 153.00 182.00 152.96 181.50 153.00 181.00
C 153.17 178.79 152.84 176.26 151.00 175.00
C 150.90 177.59 147.89 179.03 149.00 182.00
C 150.31 181.84 151.70 182.21 153.00 182.00 Z"/>
</g>
<g fill="None" fill-opacity="0.0" stroke="#8C6C5A" stroke-opacity="1.00" stroke-width="0.3"><path d="
M 139.00 178.00 
C 141.15 177.69 143.98 178.09 143.00 181.00
C 141.81 182.85 142.89 184.20 140.00 185.00
C 141.79 184.68 144.47 184.86 144.00 182.00
C 145.25 182.30 145.71 183.83 147.00 184.00
C 147.15 181.90 148.59 180.27 148.00 178.00
C 147.21 177.65 145.74 178.44 145.00 178.00
C 143.19 178.27 145.74 180.00 143.00 177.00
C 141.21 176.60 140.11 177.76 139.00 178.00 Z"/>
</g>
<g fill="None" fill-opacity="0.0" stroke="#83796A" stroke-opacity="1.00" stroke-width="0.3"><path d="
M 54.00 188.00 
C 53.17 189.38 52.62 190.62 52.00 192.00
C 51.66 192.75 51.15 193.17 51.00 194.00
C 52.61 192.46 53.69 190.88 55.00 189.00
C 56.97 185.50 59.01 181.67 61.00 178.00
C 58.69 181.34 56.17 184.36 54.00 188.00 Z"/>
</g>
<g fill="None" fill-opacity="0.0" stroke="#ECE2DA" stroke-opacity="1.00" stroke-width="0.3"><path d="
M 55.00 189.00 
C 53.69 190.88 52.61 192.46 51.00 194.00
C 50.91 194.48 51.00 195.00 51.00 195.00
C 50.67 198.49 47.31 201.78 45.00 204.00
C 44.91 204.48 45.00 205.00 45.00 205.00
C 44.68 208.47 40.74 213.97 37.00 212.00
C 39.99 216.27 42.97 220.05 43.00 226.00
C 36.85 218.59 39.78 227.95 42.00 232.00
C 49.06 230.08 49.67 242.02 52.00 247.00
L 99.00 247.00
C 94.95 241.16 91.29 235.09 88.00 229.00
C 87.05 227.59 85.53 226.96 85.00 225.00
C 84.87 224.53 85.00 224.00 85.00 224.00
C 77.63 219.20 73.02 203.71 69.00 196.00
C 68.44 194.93 68.42 194.06 68.00 193.00
C 66.41 188.97 65.37 185.01 64.00 181.00
C 63.70 180.11 63.12 180.41 63.00 179.00
C 61.79 181.43 57.00 186.11 55.00 189.00 Z"/>
</g>
<g fill="None" fill-opacity="0.0" stroke="#A7583B" stroke-opacity="1.00" stroke-width="0.3"><path d="
M 132.00 207.00 
C 133.36 202.41 128.45 201.08 126.00 199.00
C 129.46 196.73 136.00 197.81 137.00 192.00
C 141.24 193.57 148.75 191.65 149.00 186.00
C 147.35 185.85 145.64 186.20 144.00 186.00
C 140.70 186.84 135.59 186.03 133.00 185.00
C 130.41 181.56 125.15 184.56 125.00 180.00
C 121.00 183.39 119.11 179.81 115.00 180.00
C 115.36 183.21 112.35 181.56 110.00 180.00
C 111.30 181.73 112.53 185.33 114.00 182.00
C 114.66 184.22 116.30 185.78 118.00 187.00
C 121.27 183.60 129.87 184.43 129.00 191.00
C 123.03 186.53 122.96 198.33 129.00 196.00
C 127.13 197.72 123.47 197.59 123.00 201.00
C 127.17 201.54 129.64 204.10 132.00 207.00 Z"/>
</g>
<g fill="None" fill-opacity="0.0" stroke="#71562F" stroke-opacity="1.00" stroke-width="0.3"><path d="
M 0.00 190.00 
L 0.00 230.00
C 11.71 226.27 10.46 215.19 14.00 206.00
C 16.07 207.18 22.51 201.32 28.07 204.93 C 33.64 208.53 41.84 206.26 45.00 201.00
C 43.67 201.00 42.33 201.00 41.00 201.00
C 44.08 192.84 33.88 189.94 26.68 184.32 C 19.48 178.70 5.42 182.37 0.00 190.00 Z"/>
</g>
<g fill="None" fill-opacity="0.0" stroke="#5E240F" stroke-opacity="1.00" stroke-width="0.3"><path d="
M 140.00 185.00 
C 138.18 185.32 134.80 185.41 133.00 185.00
C 135.59 186.03 140.70 186.84 144.00 186.00
C 144.46 185.88 146.63 184.47 147.00 184.00
C 145.71 183.83 145.25 182.30 144.00 182.00
C 144.47 184.86 141.79 184.68 140.00 185.00 Z"/>
</g>
<g fill="None" fill-opacity="0.0" stroke="#481B0B" stroke-opacity="1.00" stroke-width="0.3"><path d="
M 149.00 182.00 
C 148.11 181.92 147.48 183.65 148.87 183.92 C 150.25 184.18 149.58 182.05 149.00 182.00 Z"/>
</g>
<g fill="None" fill-opacity="0.0" stroke="#C18456" stroke-opacity="1.00" stroke-width="0.3"><path d="
M 70.00 192.00 
C 70.00 192.00 69.75 192.71 70.00 193.00
C 71.05 194.24 71.77 196.19 72.00 198.00
C 70.75 197.70 70.29 196.17 69.00 196.00
C 73.02 203.71 77.63 219.20 85.00 224.00
C 87.65 221.25 89.93 235.04 94.00 231.00
C 90.37 237.25 100.83 238.31 102.00 243.00
C 105.71 241.14 110.31 243.46 114.00 243.00
C 110.04 234.48 107.14 219.08 97.00 218.00
C 96.83 207.95 83.31 202.16 80.00 193.00
C 80.00 193.00 79.33 193.24 79.00 193.00
C 75.65 190.51 75.14 184.20 71.00 183.00
C 70.07 186.01 70.85 188.66 70.00 192.00 Z"/>
</g>
<g fill="None" fill-opacity="0.0" stroke="#26180B" stroke-opacity="1.00" stroke-width="0.3"><path d="
M 120.00 221.00 
C 115.62 219.36 109.89 216.57 108.00 212.00
C 108.00 212.00 107.26 211.75 107.00 212.00
C 107.84 215.00 103.14 213.13 104.00 216.00
C 109.97 218.53 111.98 222.53 117.98 225.02 C 123.97 227.52 130.48 226.93 137.00 229.00 C 143.52 231.07 148.72 224.20 154.00 223.00
C 160.46 224.39 170.19 231.24 179.00 232.00
C 179.69 216.78 170.89 201.63 182.00 189.00
C 179.78 188.55 179.19 191.00 178.00 192.00
C 177.83 193.29 176.30 193.75 176.00 195.00
C 174.05 193.80 174.89 190.26 173.00 189.00
C 173.86 197.72 163.96 201.58 161.26 209.26 C 158.55 216.94 151.34 221.73 144.22 223.78 C 137.11 225.83 126.99 223.61 120.00 221.00 Z"/>
</g>
<g fill="None" fill-opacity="0.0" stroke="#856844" stroke-opacity="1.00" stroke-width="0.3"><path d="
M 45.00 201.00 
C 41.84 206.26 33.64 208.53 28.07 204.93 C 22.51 201.32 16.07 207.18 14.00 206.00
C 10.46 215.19 11.71 226.27 0.00 230.00
L 0.00 233.00
C 3.22 231.90 5.30 228.89 8.00 227.00
C 13.69 223.02 20.35 220.88 25.25 215.25 C 30.14 209.61 40.32 209.99 45.00 205.00
C 45.00 205.00 44.91 204.48 45.00 204.00
C 45.50 201.46 48.83 196.36 51.00 195.00
C 51.00 195.00 50.91 194.48 51.00 194.00
C 51.15 193.17 51.66 192.75 52.00 192.00
C 50.04 194.98 46.58 198.96 45.00 201.00 Z"/>
</g>
<g fill="None" fill-opacity="0.0" stroke="#926847" stroke-opacity="1.00" stroke-width="0.3"><path d="
M 69.00 196.00 
C 70.29 196.17 70.75 197.70 72.00 198.00
C 71.77 196.19 71.05 194.24 70.00 193.00
C 69.79 194.33 68.60 193.49 68.00 193.00
C 68.42 194.06 68.44 194.93 69.00 196.00 Z"/>
</g>
<g fill="None" fill-opacity="0.0" stroke="#9D6A46" stroke-opacity="1.00" stroke-width="0.3"><path d="
M 85.00 224.00 
C 85.00 224.00 84.87 224.53 85.00 225.00
C 86.63 226.19 87.05 227.25 88.00 229.00
C 91.29 235.09 94.95 241.16 99.00 247.00
L 122.00 247.00
C 118.70 244.43 121.31 241.36 121.00 238.00
C 112.62 235.15 114.51 218.51 103.00 220.00
C 102.86 215.47 98.29 212.32 95.00 211.00
C 92.93 208.65 91.08 203.59 87.75 201.25 C 84.43 198.91 81.39 195.73 80.00 193.00
C 83.31 202.16 96.83 207.95 97.00 218.00
C 107.14 219.08 110.04 234.48 114.00 243.00
C 110.31 243.46 105.71 241.14 102.00 243.00
C 100.83 238.31 90.37 237.25 94.00 231.00
C 89.93 235.04 87.65 221.25 85.00 224.00 Z"/>
</g>
<g fill="None" fill-opacity="0.0" stroke="#B1A392" stroke-opacity="1.00" stroke-width="0.3"><path d="
M 45.00 204.00 
C 47.31 201.78 50.67 198.49 51.00 195.00
C 48.83 196.36 45.50 201.46 45.00 204.00 Z"/>
</g>
<g fill="None" fill-opacity="0.0" stroke="#301D0E" stroke-opacity="1.00" stroke-width="0.3"><path d="
M 99.00 211.00 
C 99.49 211.08 100.50 210.98 101.00 211.00
C 102.67 211.00 104.33 211.00 106.00 211.00
C 104.16 207.29 102.63 209.94 100.00 209.00
C 104.77 204.64 93.96 197.30 91.80 199.75 C 89.65 202.21 97.20 209.77 99.00 211.00 Z"/>
</g>
<g fill="None" fill-opacity="0.0" stroke="#572E13" stroke-opacity="1.00" stroke-width="0.3"><path d="
M 141.00 199.00 
C 138.33 199.00 135.67 199.00 133.00 199.00
C 133.08 201.28 134.67 204.11 136.00 201.00
C 135.56 204.98 138.89 205.58 141.00 208.00
C 141.98 204.80 139.20 201.64 141.00 199.00 Z"/>
</g>
<g fill="None" fill-opacity="0.0" stroke="#CAB9B1" stroke-opacity="1.00" stroke-width="0.3"><path d="
M 8.00 227.00 
C 5.23 229.28 3.40 233.41 0.00 235.00
L 0.00 247.00
L 52.00 247.00
C 49.67 242.02 49.06 230.08 42.00 232.00
C 39.78 227.95 36.85 218.59 43.00 226.00
C 42.97 220.05 39.99 216.27 37.00 212.00
C 40.74 213.97 44.68 208.47 45.00 205.00
C 40.32 209.99 30.14 209.61 25.25 215.25 C 20.35 220.88 13.69 223.02 8.00 227.00 Z"/>
</g>
<g fill="None" fill-opacity="0.0" stroke="#72492B" stroke-opacity="1.00" stroke-width="0.3"><path d="
M 95.00 211.00 
C 98.29 212.32 102.86 215.47 103.00 220.00
C 114.51 218.51 112.62 235.15 121.00 238.00
C 121.31 241.36 118.70 244.43 122.00 247.00
L 140.00 247.00
C 138.94 242.03 144.39 237.75 141.00 233.00
C 133.44 231.43 125.53 228.24 117.22 225.78 C 108.92 223.31 104.77 215.67 101.00 211.00
C 100.50 210.98 99.49 211.08 99.00 211.00
C 98.61 210.93 94.70 210.80 95.00 211.00 Z"/>
</g>
<g fill="None" fill-opacity="0.0" stroke="#614A36" stroke-opacity="1.00" stroke-width="0.3"><path d="
M 149.00 247.00 
L 198.00 247.00
C 195.02 242.27 189.60 239.28 185.08 236.92 C 180.55 234.57 172.97 231.43 168.23 230.77 C 163.49 230.11 157.90 221.91 154.00 223.00
C 150.12 224.09 152.53 231.11 150.78 233.78 C 149.03 236.45 148.97 243.53 149.00 247.00 Z"/>
</g>
<g fill="None" fill-opacity="0.0" stroke="#B49579" stroke-opacity="1.00" stroke-width="0.3"><path d="
M 88.00 229.00 
C 87.05 227.25 86.63 226.19 85.00 225.00
C 85.53 226.96 87.05 227.59 88.00 229.00 Z"/>
</g>
<g fill="None" fill-opacity="0.0" stroke="#9A8674" stroke-opacity="1.00" stroke-width="0.3"><path d="
M 0.00 233.00 
L 0.00 235.00
C 3.40 233.41 5.23 229.28 8.00 227.00
C 5.30 228.89 3.22 231.90 0.00 233.00 Z"/>
</g>
<g fill="None" fill-opacity="0.0" stroke="#2C1303" stroke-opacity="1.00" stroke-width="0.3"><path d="
M 141.00 247.00 
L 145.00 247.00
C 145.43 243.77 143.30 241.27 144.00 238.00
C 141.57 240.07 141.62 244.00 141.00 247.00 Z"/>
</g>
<g fill="#392A16" fill-opacity="1.00" stroke="None">
<path d="
M 0.00 178.00 
C 8.22 171.86 18.66 169.69 28.00 168.00
C 31.03 172.20 35.63 176.29 39.70 180.30 C 43.78 184.31 44.45 192.24 49.00 195.00
C 46.97 191.61 51.24 189.17 54.00 188.00
C 56.17 184.36 58.69 181.34 61.00 178.00
C 61.82 176.48 61.57 176.20 63.00 175.00
C 63.56 174.54 66.95 171.64 68.00 173.00
C 66.09 169.46 68.55 162.44 68.00 157.00
C 53.30 159.40 45.75 140.64 50.00 128.00
C 41.41 121.98 50.99 103.44 60.00 104.00
C 60.90 103.70 62.08 104.24 63.00 104.00
C 61.71 97.61 61.35 89.15 60.07 82.93 C 58.80 76.71 54.50 68.32 59.00 64.00
C 59.77 70.12 60.60 77.03 64.00 82.00
C 66.95 78.05 65.86 69.10 70.25 66.25 C 74.63 63.40 79.66 63.24 82.00 57.00
C 86.39 57.35 86.66 59.55 89.00 55.00
C 89.79 58.30 86.17 60.04 86.00 63.00
C 86.22 62.75 87.00 63.00 87.00 63.00
C 91.68 57.65 91.32 53.16 96.75 48.75 C 102.19 44.35 102.54 53.34 105.00 47.00
C 114.24 52.98 128.39 46.76 137.00 56.00
C 137.20 56.40 137.00 57.00 137.00 57.00
C 147.65 60.49 160.62 59.39 173.00 61.00
C 175.06 65.86 182.61 66.51 184.75 72.25 C 186.90 77.98 183.53 88.63 191.00 90.00
C 195.08 104.94 191.56 120.36 194.00 136.00
C 195.76 129.72 193.23 120.57 202.00 120.00
C 202.40 134.62 197.63 147.81 193.00 161.00
C 190.50 159.67 193.57 155.26 191.00 154.00
C 189.55 159.20 189.45 164.77 188.00 170.00
C 186.21 174.67 179.56 184.90 177.00 182.00
C 178.69 184.99 173.80 193.31 178.00 192.00
C 179.19 191.00 179.78 188.55 182.00 189.00
C 170.89 201.63 179.69 216.78 179.00 232.00
C 170.19 231.24 160.46 224.39 154.00 223.00
C 157.90 221.91 163.49 230.11 168.23 230.77 C 172.97 231.43 180.55 234.57 185.08 236.92 C 189.60 239.28 195.02 242.27 198.00 247.00
L 258.00 247.00
L 258.00 85.00
C 246.00 89.84 233.78 83.40 227.00 74.00
C 221.08 54.99 245.01 38.34 258.00 53.00
L 258.00 0.00
L 0.00 0.00
L 0.00 178.00
M 182.00 33.00 
C 185.03 33.26 188.37 32.26 191.00 34.00
C 190.69 37.82 190.40 40.19 186.00 41.00
C 193.04 38.49 191.54 46.56 196.00 48.00
C 195.38 50.37 193.57 51.60 192.00 53.00
C 193.67 55.51 195.57 57.97 196.00 61.00
C 186.22 60.58 197.76 65.06 197.97 70.03 C 198.19 75.00 198.70 85.47 197.00 90.00
C 195.35 87.27 196.33 83.84 195.00 81.00
C 191.35 81.60 191.59 80.31 188.00 82.00
C 187.09 76.79 186.45 70.73 183.22 66.78 C 180.00 62.82 171.17 64.65 177.00 59.00
C 169.50 63.95 163.41 55.92 156.33 57.33 C 149.25 58.74 141.54 57.15 137.08 51.92 C 132.63 46.68 119.75 52.76 121.00 44.00
C 118.71 48.69 116.55 46.64 113.00 47.00
C 112.22 41.94 116.41 37.87 120.00 35.00
C 116.85 41.41 119.82 38.67 123.00 35.00
C 122.25 32.79 120.38 33.59 122.00 30.00
C 118.70 31.54 116.72 32.04 115.00 29.00
C 115.90 32.94 110.97 32.32 109.11 33.11 C 107.24 33.89 105.03 34.34 103.00 33.00
C 101.21 35.40 100.63 37.83 103.00 40.00
C 98.91 42.57 98.32 49.13 92.00 47.00
C 97.69 50.07 90.69 50.33 91.00 54.00
C 84.98 57.90 83.76 47.19 79.00 52.00
C 79.63 48.62 82.47 47.82 80.07 43.93 C 77.68 40.03 84.56 39.04 82.00 36.00
C 84.03 34.48 86.96 34.71 89.00 36.00
C 92.55 28.28 92.58 24.56 95.00 16.00
C 102.42 12.42 114.33 7.84 125.00 10.00 C 135.68 12.16 149.45 9.58 158.08 15.92 C 166.71 22.26 179.15 20.68 182.00 33.00 Z"/>
</g>
<g fill="#21170F" fill-opacity="1.00" stroke="None">
<path d="
M 182.00 33.00 
C 179.15 20.68 166.71 22.26 158.08 15.92 C 149.45 9.58 135.68 12.16 125.00 10.00 C 114.33 7.84 102.42 12.42 95.00 16.00
C 92.58 24.56 92.55 28.28 89.00 36.00
C 86.96 34.71 84.03 34.48 82.00 36.00
C 84.56 39.04 77.68 40.03 80.07 43.93 C 82.47 47.82 79.63 48.62 79.00 52.00
C 83.76 47.19 84.98 57.90 91.00 54.00
C 90.69 50.33 97.69 50.07 92.00 47.00
C 98.32 49.13 98.91 42.57 103.00 40.00
C 100.63 37.83 101.21 35.40 103.00 33.00
C 105.03 34.34 107.24 33.89 109.11 33.11 C 110.97 32.32 115.90 32.94 115.00 29.00
C 116.72 32.04 118.70 31.54 122.00 30.00
C 120.38 33.59 122.25 32.79 123.00 35.00
C 119.82 38.67 116.85 41.41 120.00 35.00
C 116.41 37.87 112.22 41.94 113.00 47.00
C 116.55 46.64 118.71 48.69 121.00 44.00
C 119.75 52.76 132.63 46.68 137.08 51.92 C 141.54 57.15 149.25 58.74 156.33 57.33 C 163.41 55.92 169.50 63.95 177.00 59.00
C 171.17 64.65 180.00 62.82 183.22 66.78 C 186.45 70.73 187.09 76.79 188.00 82.00
C 191.59 80.31 191.35 81.60 195.00 81.00
C 196.33 83.84 195.35 87.27 197.00 90.00
C 198.70 85.47 198.19 75.00 197.97 70.03 C 197.76 65.06 186.22 60.58 196.00 61.00
C 195.57 57.97 193.67 55.51 192.00 53.00
C 193.57 51.60 195.38 50.37 196.00 48.00
C 191.54 46.56 193.04 38.49 186.00 41.00
C 190.40 40.19 190.69 37.82 191.00 34.00
C 188.37 32.26 185.03 33.26 182.00 33.00 Z"/>
</g>
<g fill="#533925" fill-opacity="1.00" stroke="None">
<path d="
M 87.00 63.00 
C 94.06 64.06 98.96 55.57 98.00 50.00
C 111.26 53.39 124.46 51.52 137.00 56.00
C 128.39 46.76 114.24 52.98 105.00 47.00
C 102.54 53.34 102.19 44.35 96.75 48.75 C 91.32 53.16 91.68 57.65 87.00 63.00 Z"/>
</g>
<g fill="#4A381B" fill-opacity="1.00" stroke="None">
<path d="
M 258.00 85.00 
L 258.00 53.00
C 245.01 38.34 221.08 54.99 227.00 74.00
C 233.78 83.40 246.00 89.84 258.00 85.00 Z"/>
</g>
<g fill="#7A5337" fill-opacity="1.00" stroke="None">
<path d="
M 87.00 63.00 
C 87.00 63.00 86.22 62.75 86.00 63.00
C 83.53 65.83 82.90 71.79 78.92 72.92 C 74.93 74.05 70.81 80.57 70.00 74.00
C 65.97 84.91 62.92 93.90 65.00 105.00
C 63.24 103.11 61.34 108.15 60.00 104.00
C 50.99 103.44 41.41 121.98 50.00 128.00
C 50.34 128.24 51.00 128.00 51.00 128.00
C 52.67 120.97 45.83 110.95 55.00 105.00
C 63.62 104.74 65.36 115.66 67.00 122.00
C 67.18 120.21 66.02 116.64 69.00 117.00
C 68.65 120.19 68.10 124.27 70.00 127.00
C 70.89 119.46 73.41 117.09 74.00 111.00
C 74.40 106.84 71.94 103.97 72.35 100.30 C 72.77 96.64 80.36 95.01 75.00 91.00
C 80.11 89.00 82.77 85.25 89.00 85.00
C 86.83 82.64 81.84 86.77 83.93 81.92 C 86.02 77.08 86.85 79.93 85.00 83.00
C 91.31 82.48 88.85 76.06 91.00 72.00
C 93.60 62.25 98.45 56.40 108.22 56.22 C 118.00 56.04 129.36 54.78 136.90 62.10 C 144.44 69.42 156.81 60.74 165.25 68.75 C 173.68 76.77 168.15 82.56 166.00 93.00
C 169.10 95.77 170.60 99.56 173.00 102.00
C 170.56 104.41 166.01 101.45 164.00 104.00
C 167.18 103.75 171.78 106.13 174.67 104.67 C 177.56 103.21 177.06 97.87 181.00 100.00
C 177.81 94.09 181.63 87.43 180.22 78.78 C 178.81 70.13 171.38 67.48 163.92 64.08 C 156.46 60.68 147.47 60.10 140.00 63.00
C 141.39 59.23 135.65 60.87 137.00 57.00
C 137.00 57.00 137.20 56.40 137.00 56.00
C 124.46 51.52 111.26 53.39 98.00 50.00
C 98.96 55.57 94.06 64.06 87.00 63.00 Z"/>
</g>
<g fill="#5B452E" fill-opacity="1.00" stroke="None">
<path d="
M 60.00 104.00 
C 61.34 108.15 63.24 103.11 65.00 105.00
C 62.92 93.90 65.97 84.91 70.00 74.00
C 70.81 80.57 74.93 74.05 78.92 72.92 C 82.90 71.79 83.53 65.83 86.00 63.00
C 86.17 60.04 89.79 58.30 89.00 55.00
C 86.66 59.55 86.39 57.35 82.00 57.00
C 79.66 63.24 74.63 63.40 70.25 66.25 C 65.86 69.10 66.95 78.05 64.00 82.00
C 60.60 77.03 59.77 70.12 59.00 64.00
C 54.50 68.32 58.80 76.71 60.07 82.93 C 61.35 89.15 61.71 97.61 63.00 104.00
C 62.08 104.24 60.90 103.70 60.00 104.00 Z"/>
</g>
<g fill="#8F5839" fill-opacity="1.00" stroke="None">
<path d="
M 91.00 72.00 
C 94.38 66.42 99.74 58.50 107.00 58.00 C 114.26 57.50 127.11 54.17 133.25 60.75 C 139.39 67.34 148.07 67.21 157.00 66.00
C 158.69 71.09 164.05 81.27 157.00 85.00
C 157.78 90.10 160.38 93.84 163.00 99.00
C 154.72 99.35 148.67 106.97 140.00 107.00
C 141.15 110.45 137.43 110.51 136.00 112.00
C 145.26 118.66 140.60 130.28 145.92 140.08 C 151.25 149.87 140.32 164.09 130.00 155.00
C 133.51 160.64 121.81 152.50 124.00 154.00
C 122.73 153.79 120.84 151.60 119.00 152.00
C 120.10 154.28 121.27 156.15 120.00 159.00
C 112.31 158.66 109.41 159.36 104.00 162.00
C 101.58 157.03 109.46 153.35 113.00 151.00
C 114.52 149.92 115.22 146.80 118.00 148.00
C 116.65 145.52 114.15 147.06 117.00 143.00
C 102.17 146.39 82.27 158.89 93.00 176.00
C 84.16 174.43 86.11 162.29 81.00 158.00
C 80.12 160.88 81.57 165.41 79.00 168.00
C 75.50 155.69 71.95 145.17 72.00 131.00
C 78.29 134.50 65.88 107.51 81.00 114.00
C 81.09 110.29 75.84 113.22 74.00 111.00
C 73.41 117.09 70.89 119.46 70.00 127.00
C 68.29 141.55 75.18 156.21 71.00 170.00
C 74.01 171.66 76.55 177.90 80.00 173.00
C 79.42 175.57 78.77 179.74 83.00 179.00
C 83.03 176.25 82.46 172.64 85.00 171.00
C 87.86 177.77 90.74 186.31 98.00 188.00
C 95.53 189.55 95.89 191.33 99.00 190.00
C 100.32 193.92 101.39 196.70 98.00 199.00
C 100.21 200.00 101.47 202.00 104.00 203.00
C 100.82 207.26 108.10 207.51 107.00 212.00
C 107.26 211.75 108.00 212.00 108.00 212.00
C 111.26 210.24 112.50 216.57 116.25 217.75 C 120.00 218.94 126.68 218.08 130.00 216.00
C 131.18 215.26 131.79 212.93 134.00 214.00
C 133.44 212.40 133.50 209.97 132.00 209.00
C 130.81 216.30 122.66 216.80 115.00 215.00
C 103.88 202.48 101.65 189.95 101.00 173.00
C 104.79 174.09 106.73 178.13 110.00 180.00
C 112.35 181.56 115.36 183.21 115.00 180.00
C 114.81 178.31 111.80 177.23 113.00 175.00
C 116.12 174.35 118.06 174.42 121.00 173.00
C 125.45 179.58 133.08 175.43 139.00 178.00
C 140.11 177.76 141.21 176.60 143.00 177.00
C 142.19 176.11 141.39 175.81 140.00 176.00
C 138.57 171.29 143.02 171.11 146.00 170.00
C 142.86 166.53 133.52 168.13 128.33 166.67 C 123.14 165.21 118.80 161.08 115.00 164.00
C 118.38 161.97 125.96 169.14 131.00 168.00
C 125.32 169.37 115.89 168.98 111.00 166.00
C 111.24 164.33 113.85 165.83 114.00 164.00
C 113.57 159.81 120.19 161.16 121.90 161.12 C 123.62 161.08 130.20 161.03 133.00 162.00
C 136.42 157.22 145.14 159.07 150.00 155.00
C 149.07 143.73 146.87 133.53 144.22 121.78 C 141.58 110.02 154.00 106.25 164.00 104.00
C 166.01 101.45 170.56 104.41 173.00 102.00
C 170.60 99.56 169.10 95.77 166.00 93.00
C 168.15 82.56 173.68 76.77 165.25 68.75 C 156.81 60.74 144.44 69.42 136.90 62.10 C 129.36 54.78 118.00 56.04 108.22 56.22 C 98.45 56.40 93.60 62.25 91.00 72.00
M 113.00 173.00 
C 113.41 174.67 111.18 176.15 112.00 178.00
C 108.06 178.63 105.92 174.73 103.00 173.00
C 98.73 170.43 98.89 172.67 96.00 176.00
C 86.19 166.93 98.19 151.85 109.00 150.00
C 106.79 154.85 99.87 157.06 97.00 162.00
C 103.00 160.68 106.34 164.48 103.00 169.00
C 108.64 168.82 114.55 170.32 119.00 173.00
C 117.06 173.74 115.02 173.68 113.00 173.00
M 128.00 173.00 
C 126.33 175.35 123.18 173.18 121.00 173.00
C 122.66 170.60 125.54 174.08 128.00 173.00 Z"/>
</g>
<g fill="#AD704E" fill-opacity="1.00" stroke="None">
<path d="
M 91.00 72.00 
C 88.85 76.06 91.31 82.48 85.00 83.00
C 86.85 79.93 86.02 77.08 83.93 81.92 C 81.84 86.77 86.83 82.64 89.00 85.00
C 82.77 85.25 80.11 89.00 75.00 91.00
C 80.36 95.01 72.77 96.64 72.35 100.30 C 71.94 103.97 74.40 106.84 74.00 111.00
C 75.84 113.22 81.09 110.29 81.00 114.00
C 65.88 107.51 78.29 134.50 72.00 131.00
C 71.95 145.17 75.50 155.69 79.00 168.00
C 81.57 165.41 80.12 160.88 81.00 158.00
C 86.11 162.29 84.16 174.43 93.00 176.00
C 82.27 158.89 102.17 146.39 117.00 143.00
C 114.15 147.06 116.65 145.52 118.00 148.00
C 115.22 146.80 114.52 149.92 113.00 151.00
C 114.87 149.97 116.62 148.88 119.00 148.00
C 118.16 145.44 117.16 142.50 120.00 141.00
C 107.33 140.75 99.05 149.49 88.00 157.00
C 87.07 152.86 83.59 149.05 80.00 150.00
C 80.04 145.85 78.49 140.78 77.00 147.00
C 74.41 142.69 79.25 139.04 77.00 135.00
C 79.99 135.88 81.22 132.39 81.00 130.00
C 83.74 135.40 91.48 125.11 95.02 127.02 C 98.57 128.94 104.61 129.90 109.00 129.00
C 103.93 129.20 108.52 128.02 110.00 127.00
C 105.75 127.64 102.27 125.36 98.00 126.00
C 100.57 123.97 104.99 125.70 108.00 124.00
C 101.49 121.74 93.06 119.49 86.00 121.00
C 88.21 117.27 87.12 113.60 91.00 112.00
C 91.26 111.89 91.65 111.07 92.00 111.00
C 92.01 107.70 87.80 109.69 88.00 112.00
C 87.66 108.88 82.31 109.90 82.08 105.92 C 81.85 101.94 86.67 100.27 88.00 97.00
C 91.05 99.78 92.05 109.08 99.00 106.00
C 98.02 103.99 95.64 103.36 94.00 102.00
C 94.83 99.72 96.54 98.90 95.00 96.00
C 97.24 96.70 106.47 95.86 102.00 100.00
C 104.84 100.59 108.98 98.78 111.00 101.00
C 120.01 100.28 122.71 102.96 130.75 106.25 C 138.79 109.54 130.27 121.00 125.00 118.00
C 122.83 119.92 123.33 122.69 122.00 125.00
C 123.91 124.51 125.78 123.39 128.00 124.00
C 127.45 118.99 132.32 118.44 133.00 123.00
C 135.48 109.93 140.15 120.59 139.93 129.07 C 139.71 137.56 147.22 146.35 142.00 155.00
C 137.28 155.42 133.28 156.46 129.00 154.00
C 129.26 154.12 129.70 154.78 130.00 155.00
C 140.32 164.09 151.25 149.87 145.92 140.08 C 140.60 130.28 145.26 118.66 136.00 112.00
C 137.43 110.51 141.15 110.45 140.00 107.00
C 148.67 106.97 154.72 99.35 163.00 99.00
C 160.38 93.84 157.78 90.10 157.00 85.00
C 164.05 81.27 158.69 71.09 157.00 66.00
C 148.07 67.21 139.39 67.34 133.25 60.75 C 127.11 54.17 114.26 57.50 107.00 58.00 C 99.74 58.50 94.38 66.42 91.00 72.00 Z"/>
</g>
<g fill="#5F381E" fill-opacity="1.00" stroke="None">
<path d="
M 164.00 104.00 
C 154.00 106.25 141.58 110.02 144.22 121.78 C 146.87 133.53 149.07 143.73 150.00 155.00
C 145.14 159.07 136.42 157.22 133.00 162.00
C 130.20 161.03 123.62 161.08 121.90 161.12 C 120.19 161.16 113.57 159.81 114.00 164.00
C 114.47 163.89 115.00 164.00 115.00 164.00
C 118.80 161.08 123.14 165.21 128.33 166.67 C 133.52 168.13 142.86 166.53 146.00 170.00
C 143.02 171.11 138.57 171.29 140.00 176.00
C 141.39 175.81 142.19 176.11 143.00 177.00
C 145.74 180.00 143.19 178.27 145.00 178.00
C 147.24 177.67 149.63 177.56 151.00 175.00
C 152.84 176.26 153.17 178.79 153.00 181.00
C 153.57 179.96 155.27 180.46 156.00 180.00
C 156.23 179.86 156.00 179.00 156.00 179.00
C 155.98 178.00 156.01 177.00 156.00 176.00
C 153.15 179.76 154.04 175.11 153.00 173.00
C 157.48 171.38 163.53 171.40 168.00 173.00
C 164.68 178.90 158.52 185.71 153.00 183.00
C 150.84 186.06 160.94 196.60 152.00 200.00
C 154.29 204.33 154.36 205.06 158.00 202.00
C 162.49 210.36 147.78 212.03 152.00 216.00
C 145.69 216.34 141.43 216.01 136.00 219.00
C 134.71 215.80 132.53 217.20 130.00 216.00
C 126.68 218.08 120.00 218.94 116.25 217.75 C 112.50 216.57 111.26 210.24 108.00 212.00
C 109.89 216.57 115.62 219.36 120.00 221.00
C 129.96 223.24 137.97 219.53 148.23 218.79 C 158.49 218.04 160.12 204.68 165.11 198.11 C 170.09 191.54 174.58 180.20 183.00 178.00
C 183.01 174.82 185.36 171.66 188.00 170.00
C 189.45 164.77 189.55 159.20 191.00 154.00
C 193.57 155.26 190.50 159.67 193.00 161.00
C 197.63 147.81 202.40 134.62 202.00 120.00
C 193.23 120.57 195.76 129.72 194.00 136.00
C 191.56 120.36 195.08 104.94 191.00 90.00
C 183.53 88.63 186.90 77.98 184.75 72.25 C 182.61 66.51 175.06 65.86 173.00 61.00
C 160.62 59.39 147.65 60.49 137.00 57.00
C 135.65 60.87 141.39 59.23 140.00 63.00
C 147.47 60.10 156.46 60.68 163.92 64.08 C 171.38 67.48 178.81 70.13 180.22 78.78 C 181.63 87.43 177.81 94.09 181.00 100.00
C 177.06 97.87 177.56 103.21 174.67 104.67 C 171.78 106.13 167.18 103.75 164.00 104.00
M 176.00 113.00 
C 173.87 115.35 169.49 112.75 167.00 115.00
C 172.65 115.47 177.88 119.05 184.00 119.00
C 181.51 120.73 185.78 123.66 183.00 125.00
C 180.22 122.70 177.24 126.02 174.00 125.00
C 175.28 124.06 178.79 121.62 176.00 120.00
C 174.84 124.67 164.82 124.59 164.00 119.00
C 160.45 119.34 159.47 122.14 163.00 123.00
C 158.11 125.09 152.64 122.09 149.00 125.00
C 146.78 111.89 166.48 111.33 176.00 113.00
M 175.00 127.00 
C 171.78 131.22 164.65 128.34 161.00 126.00
C 165.21 123.17 170.74 125.96 175.00 127.00
M 179.00 165.00 
C 169.73 160.31 164.91 150.68 157.00 144.00
C 160.47 139.19 155.56 134.98 154.00 131.00
C 162.24 128.31 173.19 130.12 182.22 134.78 C 191.25 139.44 179.82 158.62 179.00 165.00
M 157.00 166.00 
C 151.69 166.08 143.70 168.94 141.00 163.00
C 145.44 161.45 155.31 158.41 157.00 166.00
M 175.00 166.00 
C 176.59 171.05 175.72 175.52 171.00 178.00
C 173.10 170.74 165.48 169.67 167.00 164.00
C 169.51 164.96 171.74 167.69 175.00 166.00 Z"/>
</g>
<g fill="#935E3E" fill-opacity="1.00" stroke="None">
<path d="
M 92.00 111.00 
C 97.50 109.98 101.97 108.20 107.00 107.00
C 106.05 103.90 107.27 102.14 104.00 101.00
C 106.33 101.00 108.67 101.00 111.00 101.00
C 108.98 98.78 104.84 100.59 102.00 100.00
C 106.47 95.86 97.24 96.70 95.00 96.00
C 96.54 98.90 94.83 99.72 94.00 102.00
C 95.64 103.36 98.02 103.99 99.00 106.00
C 92.05 109.08 91.05 99.78 88.00 97.00
C 86.67 100.27 81.85 101.94 82.08 105.92 C 82.31 109.90 87.66 108.88 88.00 112.00
C 87.80 109.69 92.01 107.70 92.00 111.00 Z"/>
</g>
<g fill="#7A482C" fill-opacity="1.00" stroke="None">
<path d="
M 111.00 101.00 
C 108.67 101.00 106.33 101.00 104.00 101.00
C 107.27 102.14 106.05 103.90 107.00 107.00
C 101.97 108.20 97.50 109.98 92.00 111.00
C 91.65 111.07 91.26 111.89 91.00 112.00
C 93.64 115.68 105.00 107.20 105.00 113.00
C 105.26 112.75 106.50 112.99 107.00 113.00
C 109.41 113.06 112.38 114.68 114.00 113.00
C 110.85 111.38 107.37 110.94 104.00 110.00
C 109.91 106.98 117.09 110.37 123.00 112.00
C 122.25 115.04 120.25 118.40 119.00 114.00
C 116.17 117.03 119.22 116.91 121.00 120.00
C 113.12 121.54 117.11 117.62 111.00 116.00
C 110.46 117.66 108.44 118.33 108.00 120.00
C 107.07 121.08 105.65 120.60 105.00 122.00
C 111.02 119.49 111.65 127.09 117.00 126.00
C 118.49 125.48 120.41 125.41 122.00 125.00
C 123.33 122.69 122.83 119.92 125.00 118.00
C 130.27 121.00 138.79 109.54 130.75 106.25 C 122.71 102.96 120.01 100.28 111.00 101.00 Z"/>
</g>
<g fill="#A36642" fill-opacity="1.00" stroke="None">
<path d="
M 51.00 128.00 
C 51.67 135.36 50.73 140.74 54.00 147.00
C 53.59 144.13 54.13 142.71 57.00 144.00
C 48.77 133.51 55.58 123.20 58.00 112.00
C 59.71 114.72 61.09 118.43 61.00 122.00
C 51.28 126.31 55.32 140.26 63.00 142.00
C 63.91 137.72 60.15 135.12 59.00 132.00
C 61.94 132.13 62.28 129.49 65.00 128.00
C 66.96 130.97 66.00 135.41 68.00 138.00
C 67.80 132.81 67.75 127.24 67.00 122.00
C 65.36 115.66 63.62 104.74 55.00 105.00
C 45.83 110.95 52.67 120.97 51.00 128.00
M 56.00 109.00 
C 58.13 109.83 56.99 116.05 54.25 115.59 C 51.51 115.13 53.78 108.13 56.00 109.00 Z"/>
</g>
<g fill="#85451F" fill-opacity="1.00" stroke="None">
<path d="
M 56.00 109.00 
C 53.78 108.13 51.51 115.13 54.25 115.59 C 56.99 116.05 58.13 109.83 56.00 109.00 Z"/>
</g>
<g fill="#562E16" fill-opacity="1.00" stroke="None">
<path d="
M 107.00 113.00 
C 107.82 113.16 110.35 114.20 111.00 115.00
C 109.20 120.15 101.26 120.40 100.00 115.00
C 101.56 112.44 105.30 116.53 105.00 113.00
C 101.69 115.78 92.08 113.13 90.00 119.00
C 96.43 119.06 101.32 121.09 108.00 120.00
C 108.44 118.33 110.46 117.66 111.00 116.00
C 117.11 117.62 113.12 121.54 121.00 120.00
C 119.22 116.91 116.17 117.03 119.00 114.00
C 120.25 118.40 122.25 115.04 123.00 112.00
C 117.09 110.37 109.91 106.98 104.00 110.00
C 107.37 110.94 110.85 111.38 114.00 113.00
C 112.38 114.68 109.41 113.06 107.00 113.00
M 100.00 119.00 
C 95.76 117.38 100.89 114.18 100.00 119.00 Z"/>
</g>
<g fill="#905C3F" fill-opacity="1.00" stroke="None">
<path d="
M 91.00 112.00 
C 87.12 113.60 88.21 117.27 86.00 121.00
C 93.06 119.49 101.49 121.74 108.00 124.00
C 104.99 125.70 100.57 123.97 98.00 126.00
C 102.27 125.36 105.75 127.64 110.00 127.00
C 108.52 128.02 103.93 129.20 109.00 129.00
C 112.35 128.87 114.36 126.93 117.00 126.00
C 111.65 127.09 111.02 119.49 105.00 122.00
C 105.65 120.60 107.07 121.08 108.00 120.00
C 101.32 121.09 96.43 119.06 90.00 119.00
C 92.08 113.13 101.69 115.78 105.00 113.00
C 105.00 107.20 93.64 115.68 91.00 112.00 Z"/>
</g>
<g fill="#BA7D54" fill-opacity="1.00" stroke="None">
<path d="
M 54.00 147.00 
C 54.69 148.32 55.20 149.76 56.00 151.00
C 58.33 153.52 63.31 155.63 67.00 155.00
C 66.73 153.72 67.77 152.28 69.00 152.00
C 69.76 147.98 68.16 142.31 68.00 138.00
C 66.00 135.41 66.96 130.97 65.00 128.00
C 62.28 129.49 61.94 132.13 59.00 132.00
C 60.15 135.12 63.91 137.72 63.00 142.00
C 55.32 140.26 51.28 126.31 61.00 122.00
C 61.09 118.43 59.71 114.72 58.00 112.00
C 55.58 123.20 48.77 133.51 57.00 144.00
C 54.13 142.71 53.59 144.13 54.00 147.00 Z"/>
</g>
<g fill="#3A1E0D" fill-opacity="1.00" stroke="None">
<path d="
M 176.00 113.00 
C 166.48 111.33 146.78 111.89 149.00 125.00
C 152.64 122.09 158.11 125.09 163.00 123.00
C 159.47 122.14 160.45 119.34 164.00 119.00
C 164.82 124.59 174.84 124.67 176.00 120.00
C 178.79 121.62 175.28 124.06 174.00 125.00
C 177.24 126.02 180.22 122.70 183.00 125.00
C 185.78 123.66 181.51 120.73 184.00 119.00
C 177.88 119.05 172.65 115.47 167.00 115.00
C 169.49 112.75 173.87 115.35 176.00 113.00 Z"/>
</g>
<g fill="#250E04" fill-opacity="1.00" stroke="None">
<path d="
M 107.00 113.00 
C 106.50 112.99 105.26 112.75 105.00 113.00
C 105.30 116.53 101.56 112.44 100.00 115.00
C 101.26 120.40 109.20 120.15 111.00 115.00
C 110.35 114.20 107.82 113.16 107.00 113.00 Z"/>
</g>
<g fill="#7A5D4B" fill-opacity="1.00" stroke="None">
<path d="
M 100.00 119.00 
C 100.89 114.18 95.76 117.38 100.00 119.00 Z"/>
</g>
<g fill="#C27F58" fill-opacity="1.00" stroke="None">
<path d="
M 122.00 125.00 
C 120.41 125.41 118.49 125.48 117.00 126.00
C 114.36 126.93 112.35 128.87 109.00 129.00
C 104.61 129.90 98.57 128.94 95.02 127.02 C 91.48 125.11 83.74 135.40 81.00 130.00
C 81.22 132.39 79.99 135.88 77.00 135.00
C 79.25 139.04 74.41 142.69 77.00 147.00
C 78.49 140.78 80.04 145.85 80.00 150.00
C 83.59 149.05 87.07 152.86 88.00 157.00
C 99.05 149.49 107.33 140.75 120.00 141.00
C 117.16 142.50 118.16 145.44 119.00 148.00
C 116.62 148.88 114.87 149.97 113.00 151.00
C 109.46 153.35 101.58 157.03 104.00 162.00
C 109.41 159.36 112.31 158.66 120.00 159.00
C 121.27 156.15 120.10 154.28 119.00 152.00
C 120.84 151.60 122.73 153.79 124.00 154.00
C 125.42 154.23 127.70 153.42 129.00 154.00
C 133.28 156.46 137.28 155.42 142.00 155.00
C 147.22 146.35 139.71 137.56 139.93 129.07 C 140.15 120.59 135.48 109.93 133.00 123.00
C 132.32 118.44 127.45 118.99 128.00 124.00
C 125.78 123.39 123.91 124.51 122.00 125.00 Z"/>
</g>
<g fill="#55351D" fill-opacity="1.00" stroke="None">
<path d="
M 67.00 122.00 
C 67.75 127.24 67.80 132.81 68.00 138.00
C 68.16 142.31 69.76 147.98 69.00 152.00
C 68.76 153.27 67.36 154.44 68.00 156.00
C 63.35 156.66 58.19 155.51 56.00 151.00
C 55.20 149.76 54.69 148.32 54.00 147.00
C 50.73 140.74 51.67 135.36 51.00 128.00
C 51.00 128.00 50.34 128.24 50.00 128.00
C 45.75 140.64 53.30 159.40 68.00 157.00
C 68.55 162.44 66.09 169.46 68.00 173.00
C 71.62 171.76 71.99 180.18 74.25 181.75 C 76.50 183.32 77.83 189.87 79.00 193.00
C 79.33 193.24 80.00 193.00 80.00 193.00
C 81.39 195.73 84.43 198.91 87.75 201.25 C 91.08 203.59 92.93 208.65 95.00 211.00
C 94.70 210.80 98.61 210.93 99.00 211.00
C 97.20 209.77 89.65 202.21 91.80 199.75 C 93.96 197.30 104.77 204.64 100.00 209.00
C 102.63 209.94 104.16 207.29 106.00 211.00
C 104.33 211.00 102.67 211.00 101.00 211.00
C 104.77 215.67 108.92 223.31 117.22 225.78 C 125.53 228.24 133.44 231.43 141.00 233.00
C 144.39 237.75 138.94 242.03 140.00 247.00
L 141.00 247.00
C 141.62 244.00 141.57 240.07 144.00 238.00
C 143.30 241.27 145.43 243.77 145.00 247.00
L 149.00 247.00
C 148.97 243.53 149.03 236.45 150.78 233.78 C 152.53 231.11 150.12 224.09 154.00 223.00
C 148.72 224.20 143.52 231.07 137.00 229.00 C 130.48 226.93 123.97 227.52 117.98 225.02 C 111.98 222.53 109.97 218.53 104.00 216.00
C 103.14 213.13 107.84 215.00 107.00 212.00
C 108.10 207.51 100.82 207.26 104.00 203.00
C 101.47 202.00 100.21 200.00 98.00 199.00
C 101.39 196.70 100.32 193.92 99.00 190.00
C 95.89 191.33 95.53 189.55 98.00 188.00
C 90.74 186.31 87.86 177.77 85.00 171.00
C 82.46 172.64 83.03 176.25 83.00 179.00
C 78.77 179.74 79.42 175.57 80.00 173.00
C 76.55 177.90 74.01 171.66 71.00 170.00
C 75.18 156.21 68.29 141.55 70.00 127.00
C 68.10 124.27 68.65 120.19 69.00 117.00
C 66.02 116.64 67.18 120.21 67.00 122.00 Z"/>
</g>
<g fill="#80533C" fill-opacity="1.00" stroke="None">
<path d="
M 175.00 127.00 
C 170.74 125.96 165.21 123.17 161.00 126.00
C 164.65 128.34 171.78 131.22 175.00 127.00 Z"/>
</g>
<g fill="#885232" fill-opacity="1.00" stroke="None">
<path d="
M 179.00 165.00 
C 179.82 158.62 191.25 139.44 182.22 134.78 C 173.19 130.12 162.24 128.31 154.00 131.00
C 155.56 134.98 160.47 139.19 157.00 144.00
C 164.91 150.68 169.73 160.31 179.00 165.00
M 181.00 137.00 
C 182.67 144.85 182.21 155.24 173.00 157.00
C 171.09 154.77 170.79 150.06 167.00 153.00
C 167.81 147.62 162.38 145.65 164.00 141.00
C 159.66 139.17 157.58 134.87 159.00 131.00
C 164.17 137.26 174.28 133.22 181.00 137.00 Z"/>
</g>
<g fill="#9B5F3D" fill-opacity="1.00" stroke="None">
<path d="
M 181.00 137.00 
C 174.28 133.22 164.17 137.26 159.00 131.00
C 157.58 134.87 159.66 139.17 164.00 141.00
C 162.38 145.65 167.81 147.62 167.00 153.00
C 170.79 150.06 171.09 154.77 173.00 157.00
C 182.21 155.24 182.67 144.85 181.00 137.00 Z"/>
</g>
<g fill="#62321A" fill-opacity="1.00" stroke="None">
<path d="
M 103.00 173.00 
C 102.61 171.99 101.70 171.24 102.00 170.00
C 105.78 170.14 110.98 169.01 113.00 173.00
C 115.02 173.68 117.06 173.74 119.00 173.00
C 114.55 170.32 108.64 168.82 103.00 169.00
C 106.34 164.48 103.00 160.68 97.00 162.00
C 99.87 157.06 106.79 154.85 109.00 150.00
C 98.19 151.85 86.19 166.93 96.00 176.00
C 98.89 172.67 98.73 170.43 103.00 173.00 Z"/>
</g>
<g fill="#8E6846" fill-opacity="1.00" stroke="None">
<path d="
M 69.00 152.00 
C 67.77 152.28 66.73 153.72 67.00 155.00
C 63.31 155.63 58.33 153.52 56.00 151.00
C 58.19 155.51 63.35 156.66 68.00 156.00
C 67.36 154.44 68.76 153.27 69.00 152.00 Z"/>
</g>
<g fill="#6B2F10" fill-opacity="1.00" stroke="None">
<path d="
M 130.00 155.00 
C 129.70 154.78 129.26 154.12 129.00 154.00
C 127.70 153.42 125.42 154.23 124.00 154.00
C 121.81 152.50 133.51 160.64 130.00 155.00 Z"/>
</g>
<g fill="#2E1504" fill-opacity="1.00" stroke="None">
<path d="
M 157.00 166.00 
C 155.31 158.41 145.44 161.45 141.00 163.00
C 143.70 168.94 151.69 166.08 157.00 166.00 Z"/>
</g>
<g fill="#B17555" fill-opacity="1.00" stroke="None">
<path d="
M 115.00 164.00 
C 115.00 164.00 114.47 163.89 114.00 164.00
C 113.85 165.83 111.24 164.33 111.00 166.00
C 115.89 168.98 125.32 169.37 131.00 168.00
C 125.96 169.14 118.38 161.97 115.00 164.00 Z"/>
</g>
<g fill="#3F200A" fill-opacity="1.00" stroke="None">
<path d="
M 175.00 166.00 
C 171.74 167.69 169.51 164.96 167.00 164.00
C 165.48 169.67 173.10 170.74 171.00 178.00
C 175.72 175.52 176.59 171.05 175.00 166.00 Z"/>
</g>
<g fill="#554122" fill-opacity="1.00" stroke="None">
<path d="
M 0.00 178.00 
L 0.00 190.00
C 5.42 182.37 19.48 178.70 26.68 184.32 C 33.88 189.94 44.08 192.84 41.00 201.00
C 42.33 201.00 43.67 201.00 45.00 201.00
C 46.58 198.96 50.04 194.98 52.00 192.00
C 52.62 190.62 53.17 189.38 54.00 188.00
C 51.24 189.17 46.97 191.61 49.00 195.00
C 44.45 192.24 43.78 184.31 39.70 180.30 C 35.63 176.29 31.03 172.20 28.00 168.00
C 18.66 169.69 8.22 171.86 0.00 178.00 Z"/>
</g>
<g fill="#371209" fill-opacity="1.00" stroke="None">
<path d="
M 103.00 173.00 
C 105.92 174.73 108.06 178.63 112.00 178.00
C 111.18 176.15 113.41 174.67 113.00 173.00
C 110.98 169.01 105.78 170.14 102.00 170.00
C 101.70 171.24 102.61 171.99 103.00 173.00 Z"/>
</g>
<g fill="#412612" fill-opacity="1.00" stroke="None">
<path d="
M 120.00 221.00 
C 126.99 223.61 137.11 225.83 144.22 223.78 C 151.34 221.73 158.55 216.94 161.26 209.26 C 163.96 201.58 173.86 197.72 173.00 189.00
C 174.89 190.26 174.05 193.80 176.00 195.00
C 176.30 193.75 177.83 193.29 178.00 192.00
C 173.80 193.31 178.69 184.99 177.00 182.00
C 179.56 184.90 186.21 174.67 188.00 170.00
C 185.36 171.66 183.01 174.82 183.00 178.00
C 174.58 180.20 170.09 191.54 165.11 198.11 C 160.12 204.68 158.49 218.04 148.23 218.79 C 137.97 219.53 129.96 223.24 120.00 221.00 Z"/>
</g>
<g fill="#6D3018" fill-opacity="1.00" stroke="None">
<path d="
M 128.00 173.00 
C 125.54 174.08 122.66 170.60 121.00 173.00
C 123.18 173.18 126.33 175.35 128.00 173.00 Z"/>
</g>
<g fill="#432214" fill-opacity="1.00" stroke="None">
<path d="
M 156.00 179.00 
C 157.96 174.51 158.72 171.28 165.00 174.00
C 164.45 177.60 158.93 182.04 156.00 180.00
C 155.27 180.46 153.57 179.96 153.00 181.00
C 152.96 181.50 153.00 182.00 153.00 182.00
C 153.00 182.50 153.00 183.00 153.00 183.00
C 158.52 185.71 164.68 178.90 168.00 173.00
C 163.53 171.40 157.48 171.38 153.00 173.00
C 154.04 175.11 153.15 179.76 156.00 176.00
C 156.01 177.00 155.98 178.00 156.00 179.00 Z"/>
</g>
<g fill="#917E69" fill-opacity="1.00" stroke="None">
<path d="
M 63.00 175.00 
C 63.26 174.56 62.96 178.53 63.00 179.00
C 63.12 180.41 63.70 180.11 64.00 181.00
C 63.98 176.92 64.24 177.22 67.00 175.00
C 67.24 174.81 67.88 173.04 68.00 173.00
C 66.95 171.64 63.56 174.54 63.00 175.00 Z"/>
</g>
<g fill="#926446" fill-opacity="1.00" stroke="None">
<path d="
M 67.00 175.00 
C 67.64 177.98 67.17 186.83 70.00 192.00
C 70.85 188.66 70.07 186.01 71.00 183.00
C 75.14 184.20 75.65 190.51 79.00 193.00
C 77.83 189.87 76.50 183.32 74.25 181.75 C 71.99 180.18 71.62 171.76 68.00 173.00
C 67.88 173.04 67.24 174.81 67.00 175.00 Z"/>
</g>
<g fill="#C38159" fill-opacity="1.00" stroke="None">
<path d="
M 132.00 209.00 
C 131.79 208.61 131.98 207.50 132.00 207.00
C 129.64 204.10 127.17 201.54 123.00 201.00
C 123.47 197.59 127.13 197.72 129.00 196.00
C 122.96 198.33 123.03 186.53 129.00 191.00
C 129.87 184.43 121.27 183.60 118.00 187.00
C 116.30 185.78 114.66 184.22 114.00 182.00
C 112.53 185.33 111.30 181.73 110.00 180.00
C 106.73 178.13 104.79 174.09 101.00 173.00
C 101.65 189.95 103.88 202.48 115.00 215.00
C 122.66 216.80 130.81 216.30 132.00 209.00 Z"/>
</g>
<g fill="#C69B84" fill-opacity="1.00" stroke="None">
<path d="
M 115.00 180.00 
C 119.11 179.81 121.00 183.39 125.00 180.00
C 125.15 184.56 130.41 181.56 133.00 185.00
C 134.80 185.41 138.18 185.32 140.00 185.00
C 142.89 184.20 141.81 182.85 143.00 181.00
C 143.98 178.09 141.15 177.69 139.00 178.00
C 133.08 175.43 125.45 179.58 121.00 173.00
C 118.06 174.42 116.12 174.35 113.00 175.00
C 111.80 177.23 114.81 178.31 115.00 180.00 Z"/>
</g>
<g fill="#1E0604" fill-opacity="1.00" stroke="None">
<path d="
M 156.00 179.00 
C 156.00 179.00 156.23 179.86 156.00 180.00
C 158.93 182.04 164.45 177.60 165.00 174.00
C 158.72 171.28 157.96 174.51 156.00 179.00 Z"/>
</g>
<g fill="#B9AD9E" fill-opacity="1.00" stroke="None">
<path d="
M 61.00 178.00 
C 59.01 181.67 56.97 185.50 55.00 189.00
C 57.00 186.11 61.79 181.43 63.00 179.00
C 62.96 178.53 63.26 174.56 63.00 175.00
C 61.57 176.20 61.82 176.48 61.00 178.00 Z"/>
</g>
<g fill="#5F3E26" fill-opacity="1.00" stroke="None">
<path d="
M 64.00 181.00 
C 65.37 185.01 66.41 188.97 68.00 193.00
C 68.60 193.49 69.79 194.33 70.00 193.00
C 69.75 192.71 70.00 192.00 70.00 192.00
C 67.17 186.83 67.64 177.98 67.00 175.00
C 64.24 177.22 63.98 176.92 64.00 181.00 Z"/>
</g>
<g fill="#7E4A2C" fill-opacity="1.00" stroke="None">
<path d="
M 145.00 178.00 
C 145.74 178.44 147.21 177.65 148.00 178.00
C 148.59 180.27 147.15 181.90 147.00 184.00
C 146.63 184.47 144.46 185.88 144.00 186.00
C 145.64 186.20 147.35 185.85 149.00 186.00
C 148.75 191.65 141.24 193.57 137.00 192.00
C 136.00 197.81 129.46 196.73 126.00 199.00
C 128.45 201.08 133.36 202.41 132.00 207.00
C 131.98 207.50 131.79 208.61 132.00 209.00
C 133.50 209.97 133.44 212.40 134.00 214.00
C 131.79 212.93 131.18 215.26 130.00 216.00
C 132.53 217.20 134.71 215.80 136.00 219.00
C 141.43 216.01 145.69 216.34 152.00 216.00
C 147.78 212.03 162.49 210.36 158.00 202.00
C 154.36 205.06 154.29 204.33 152.00 200.00
C 160.94 196.60 150.84 186.06 153.00 183.00
C 153.00 183.00 153.00 182.50 153.00 182.00
C 151.70 182.21 150.31 181.84 149.00 182.00
C 147.89 179.03 150.90 177.59 151.00 175.00
C 149.63 177.56 147.24 177.67 145.00 178.00
M 149.00 182.00 
C 149.58 182.05 150.25 184.18 148.87 183.92 C 147.48 183.65 148.11 181.92 149.00 182.00
M 141.00 199.00 
C 139.20 201.64 141.98 204.80 141.00 208.00
C 138.89 205.58 135.56 204.98 136.00 201.00
C 134.67 204.11 133.08 201.28 133.00 199.00
C 135.67 199.00 138.33 199.00 141.00 199.00 Z"/>
</g>
<g fill="#886755" fill-opacity="1.00" stroke="None">
<path d="
M 153.00 182.00 
C 153.00 182.00 152.96 181.50 153.00 181.00
C 153.17 178.79 152.84 176.26 151.00 175.00
C 150.90 177.59 147.89 179.03 149.00 182.00
C 150.31 181.84 151.70 182.21 153.00 182.00 Z"/>
</g>
<g fill="#8C6C5A" fill-opacity="1.00" stroke="None">
<path d="
M 139.00 178.00 
C 141.15 177.69 143.98 178.09 143.00 181.00
C 141.81 182.85 142.89 184.20 140.00 185.00
C 141.79 184.68 144.47 184.86 144.00 182.00
C 145.25 182.30 145.71 183.83 147.00 184.00
C 147.15 181.90 148.59 180.27 148.00 178.00
C 147.21 177.65 145.74 178.44 145.00 178.00
C 143.19 178.27 145.74 180.00 143.00 177.00
C 141.21 176.60 140.11 177.76 139.00 178.00 Z"/>
</g>
<g fill="#83796A" fill-opacity="1.00" stroke="None">
<path d="
M 54.00 188.00 
C 53.17 189.38 52.62 190.62 52.00 192.00
C 51.66 192.75 51.15 193.17 51.00 194.00
C 52.61 192.46 53.69 190.88 55.00 189.00
C 56.97 185.50 59.01 181.67 61.00 178.00
C 58.69 181.34 56.17 184.36 54.00 188.00 Z"/>
</g>
<g fill="#ECE2DA" fill-opacity="1.00" stroke="None">
<path d="
M 55.00 189.00 
C 53.69 190.88 52.61 192.46 51.00 194.00
C 50.91 194.48 51.00 195.00 51.00 195.00
C 50.67 198.49 47.31 201.78 45.00 204.00
C 44.91 204.48 45.00 205.00 45.00 205.00
C 44.68 208.47 40.74 213.97 37.00 212.00
C 39.99 216.27 42.97 220.05 43.00 226.00
C 36.85 218.59 39.78 227.95 42.00 232.00
C 49.06 230.08 49.67 242.02 52.00 247.00
L 99.00 247.00
C 94.95 241.16 91.29 235.09 88.00 229.00
C 87.05 227.59 85.53 226.96 85.00 225.00
C 84.87 224.53 85.00 224.00 85.00 224.00
C 77.63 219.20 73.02 203.71 69.00 196.00
C 68.44 194.93 68.42 194.06 68.00 193.00
C 66.41 188.97 65.37 185.01 64.00 181.00
C 63.70 180.11 63.12 180.41 63.00 179.00
C 61.79 181.43 57.00 186.11 55.00 189.00 Z"/>
</g>
<g fill="#A7583B" fill-opacity="1.00" stroke="None">
<path d="
M 132.00 207.00 
C 133.36 202.41 128.45 201.08 126.00 199.00
C 129.46 196.73 136.00 197.81 137.00 192.00
C 141.24 193.57 148.75 191.65 149.00 186.00
C 147.35 185.85 145.64 186.20 144.00 186.00
C 140.70 186.84 135.59 186.03 133.00 185.00
C 130.41 181.56 125.15 184.56 125.00 180.00
C 121.00 183.39 119.11 179.81 115.00 180.00
C 115.36 183.21 112.35 181.56 110.00 180.00
C 111.30 181.73 112.53 185.33 114.00 182.00
C 114.66 184.22 116.30 185.78 118.00 187.00
C 121.27 183.60 129.87 184.43 129.00 191.00
C 123.03 186.53 122.96 198.33 129.00 196.00
C 127.13 197.72 123.47 197.59 123.00 201.00
C 127.17 201.54 129.64 204.10 132.00 207.00 Z"/>
</g>
<g fill="#71562F" fill-opacity="1.00" stroke="None">
<path d="
M 0.00 190.00 
L 0.00 230.00
C 11.71 226.27 10.46 215.19 14.00 206.00
C 16.07 207.18 22.51 201.32 28.07 204.93 C 33.64 208.53 41.84 206.26 45.00 201.00
C 43.67 201.00 42.33 201.00 41.00 201.00
C 44.08 192.84 33.88 189.94 26.68 184.32 C 19.48 178.70 5.42 182.37 0.00 190.00 Z"/>
</g>
<g fill="#5E240F" fill-opacity="1.00" stroke="None">
<path d="
M 140.00 185.00 
C 138.18 185.32 134.80 185.41 133.00 185.00
C 135.59 186.03 140.70 186.84 144.00 186.00
C 144.46 185.88 146.63 184.47 147.00 184.00
C 145.71 183.83 145.25 182.30 144.00 182.00
C 144.47 184.86 141.79 184.68 140.00 185.00 Z"/>
</g>
<g fill="#481B0B" fill-opacity="1.00" stroke="None">
<path d="
M 149.00 182.00 
C 148.11 181.92 147.48 183.65 148.87 183.92 C 150.25 184.18 149.58 182.05 149.00 182.00 Z"/>
</g>
<g fill="#C18456" fill-opacity="1.00" stroke="None">
<path d="
M 70.00 192.00 
C 70.00 192.00 69.75 192.71 70.00 193.00
C 71.05 194.24 71.77 196.19 72.00 198.00
C 70.75 197.70 70.29 196.17 69.00 196.00
C 73.02 203.71 77.63 219.20 85.00 224.00
C 87.65 221.25 89.93 235.04 94.00 231.00
C 90.37 237.25 100.83 238.31 102.00 243.00
C 105.71 241.14 110.31 243.46 114.00 243.00
C 110.04 234.48 107.14 219.08 97.00 218.00
C 96.83 207.95 83.31 202.16 80.00 193.00
C 80.00 193.00 79.33 193.24 79.00 193.00
C 75.65 190.51 75.14 184.20 71.00 183.00
C 70.07 186.01 70.85 188.66 70.00 192.00 Z"/>
</g>
<g fill="#26180B" fill-opacity="1.00" stroke="None">
<path d="
M 120.00 221.00 
C 115.62 219.36 109.89 216.57 108.00 212.00
C 108.00 212.00 107.26 211.75 107.00 212.00
C 107.84 215.00 103.14 213.13 104.00 216.00
C 109.97 218.53 111.98 222.53 117.98 225.02 C 123.97 227.52 130.48 226.93 137.00 229.00 C 143.52 231.07 148.72 224.20 154.00 223.00
C 160.46 224.39 170.19 231.24 179.00 232.00
C 179.69 216.78 170.89 201.63 182.00 189.00
C 179.78 188.55 179.19 191.00 178.00 192.00
C 177.83 193.29 176.30 193.75 176.00 195.00
C 174.05 193.80 174.89 190.26 173.00 189.00
C 173.86 197.72 163.96 201.58 161.26 209.26 C 158.55 216.94 151.34 221.73 144.22 223.78 C 137.11 225.83 126.99 223.61 120.00 221.00 Z"/>
</g>
<g fill="#856844" fill-opacity="1.00" stroke="None">
<path d="
M 45.00 201.00 
C 41.84 206.26 33.64 208.53 28.07 204.93 C 22.51 201.32 16.07 207.18 14.00 206.00
C 10.46 215.19 11.71 226.27 0.00 230.00
L 0.00 233.00
C 3.22 231.90 5.30 228.89 8.00 227.00
C 13.69 223.02 20.35 220.88 25.25 215.25 C 30.14 209.61 40.32 209.99 45.00 205.00
C 45.00 205.00 44.91 204.48 45.00 204.00
C 45.50 201.46 48.83 196.36 51.00 195.00
C 51.00 195.00 50.91 194.48 51.00 194.00
C 51.15 193.17 51.66 192.75 52.00 192.00
C 50.04 194.98 46.58 198.96 45.00 201.00 Z"/>
</g>
<g fill="#926847" fill-opacity="1.00" stroke="None">
<path d="
M 69.00 196.00 
C 70.29 196.17 70.75 197.70 72.00 198.00
C 71.77 196.19 71.05 194.24 70.00 193.00
C 69.79 194.33 68.60 193.49 68.00 193.00
C 68.42 194.06 68.44 194.93 69.00 196.00 Z"/>
</g>
<g fill="#9D6A46" fill-opacity="1.00" stroke="None">
<path d="
M 85.00 224.00 
C 85.00 224.00 84.87 224.53 85.00 225.00
C 86.63 226.19 87.05 227.25 88.00 229.00
C 91.29 235.09 94.95 241.16 99.00 247.00
L 122.00 247.00
C 118.70 244.43 121.31 241.36 121.00 238.00
C 112.62 235.15 114.51 218.51 103.00 220.00
C 102.86 215.47 98.29 212.32 95.00 211.00
C 92.93 208.65 91.08 203.59 87.75 201.25 C 84.43 198.91 81.39 195.73 80.00 193.00
C 83.31 202.16 96.83 207.95 97.00 218.00
C 107.14 219.08 110.04 234.48 114.00 243.00
C 110.31 243.46 105.71 241.14 102.00 243.00
C 100.83 238.31 90.37 237.25 94.00 231.00
C 89.93 235.04 87.65 221.25 85.00 224.00 Z"/>
</g>
<g fill="#B1A392" fill-opacity="1.00" stroke="None">
<path d="
M 45.00 204.00 
C 47.31 201.78 50.67 198.49 51.00 195.00
C 48.83 196.36 45.50 201.46 45.00 204.00 Z"/>
</g>
<g fill="#301D0E" fill-opacity="1.00" stroke="None">
<path d="
M 99.00 211.00 
C 99.49 211.08 100.50 210.98 101.00 211.00
C 102.67 211.00 104.33 211.00 106.00 211.00
C 104.16 207.29 102.63 209.94 100.00 209.00
C 104.77 204.64 93.96 197.30 91.80 199.75 C 89.65 202.21 97.20 209.77 99.00 211.00 Z"/>
</g>
<g fill="#572E13" fill-opacity="1.00" stroke="None">
<path d="
M 141.00 199.00 
C 138.33 199.00 135.67 199.00 133.00 199.00
C 133.08 201.28 134.67 204.11 136.00 201.00
C 135.56 204.98 138.89 205.58 141.00 208.00
C 141.98 204.80 139.20 201.64 141.00 199.00 Z"/>
</g>
<g fill="#CAB9B1" fill-opacity="1.00" stroke="None">
<path d="
M 8.00 227.00 
C 5.23 229.28 3.40 233.41 0.00 235.00
L 0.00 247.00
L 52.00 247.00
C 49.67 242.02 49.06 230.08 42.00 232.00
C 39.78 227.95 36.85 218.59 43.00 226.00
C 42.97 220.05 39.99 216.27 37.00 212.00
C 40.74 213.97 44.68 208.47 45.00 205.00
C 40.32 209.99 30.14 209.61 25.25 215.25 C 20.35 220.88 13.69 223.02 8.00 227.00 Z"/>
</g>
<g fill="#72492B" fill-opacity="1.00" stroke="None">
<path d="
M 95.00 211.00 
C 98.29 212.32 102.86 215.47 103.00 220.00
C 114.51 218.51 112.62 235.15 121.00 238.00
C 121.31 241.36 118.70 244.43 122.00 247.00
L 140.00 247.00
C 138.94 242.03 144.39 237.75 141.00 233.00
C 133.44 231.43 125.53 228.24 117.22 225.78 C 108.92 223.31 104.77 215.67 101.00 211.00
C 100.50 210.98 99.49 211.08 99.00 211.00
C 98.61 210.93 94.70 210.80 95.00 211.00 Z"/>
</g>
<g fill="#614A36" fill-opacity="1.00" stroke="None">
<path d="
M 149.00 247.00 
L 198.00 247.00
C 195.02 242.27 189.60 239.28 185.08 236.92 C 180.55 234.57 172.97 231.43 168.23 230.77 C 163.49 230.11 157.90 221.91 154.00 223.00
C 150.12 224.09 152.53 231.11 150.78 233.78 C 149.03 236.45 148.97 243.53 149.00 247.00 Z"/>
</g>
<g fill="#B49579" fill-opacity="1.00" stroke="None">
<path d="
M 88.00 229.00 
C 87.05 227.25 86.63 226.19 85.00 225.00
C 85.53 226.96 87.05 227.59 88.00 229.00 Z"/>
</g>
<g fill="#9A8674" fill-opacity="1.00" stroke="None">
<path d="
M 0.00 233.00 
L 0.00 235.00
C 3.40 233.41 5.23 229.28 8.00 227.00
C 5.30 228.89 3.22 231.90 0.00 233.00 Z"/>
</g>
<g fill="#2C1303" fill-opacity="1.00" stroke="None">
<path d="
M 141.00 247.00 
L 145.00 247.00
C 145.43 243.77 143.30 241.27 144.00 238.00
C 141.57 240.07 141.62 244.00 141.00 247.00 Z"/>
</g>
</svg>